<?xml version="1.0" encoding="UTF-8"?>
<svg version="1.1" xmlns="http://www.w3.org/2000/svg" width="472" height="373">
<path d="M0 0 C4.22488728 1.50888831 5.65504658 4.32623964 8 8 C10.0302882 9.18070792 10.0302882 9.18070792 12.6953125 9.1484375 C21.83064436 9.75191045 27.14666421 12.43178234 34.31689453 17.92529297 C38.7456945 21.30597786 42.73821974 23.1597838 48 25 C49.35368596 26.31266518 50.68799596 27.64567325 52 29 C54.33124929 30.00484883 56.66443537 31.00522247 59 32 C59.66 32.99 60.32 33.98 61 35 C63.00795368 34.9352273 65.01590218 34.8696201 67.0234375 34.79296875 C69 35 69 35 71.5 37.1875 C73.07462392 40.13991985 73.37534065 41.71576929 73 45 C73.70125 45.2475 74.4025 45.495 75.125 45.75 C79.28150445 47.55717585 82.7667932 50.11375653 86.4296875 52.74609375 C87.73292969 53.67615234 87.73292969 53.67615234 89.0625 54.625 C89.87847656 55.21539062 90.69445312 55.80578125 91.53515625 56.4140625 C94.03700236 58.02380817 96.11583235 59.24780908 99 60 C101.1368352 59.12920119 101.1368352 59.12920119 103 57.5625 C105.34393798 55.75256402 106.36105302 54.97033082 109.35546875 55.109375 C112.67964259 56.22888997 115.33317307 57.82842749 118.3125 59.6875 C123.26402787 62.7560706 128.25251336 65.73170187 133.3203125 68.60546875 C134.41174561 69.22784424 135.50317871 69.85021973 136.62768555 70.49145508 C138.82239759 71.74041896 141.02176 72.98124858 143.22583008 74.21362305 C144.23282959 74.79023682 145.2398291 75.36685059 146.27734375 75.9609375 C147.18734131 76.47446777 148.09733887 76.98799805 149.03491211 77.51708984 C149.68339111 78.0064502 150.33187012 78.49581055 151 79 C151 82 151 82 149.59375 83.62109375 C123.3305943 106.40536128 90.7581102 128.89349722 54.59472656 127.21728516 C47.99097246 126.66427978 41.50416544 125.23956073 35.01171875 123.95703125 C29.34846626 122.84413751 23.76862697 122.20006799 18 122 C16.47632813 121.92265625 16.47632813 121.92265625 14.921875 121.84375 C-3.49722677 121.30986299 -21.61124911 127.46839318 -37.97387695 135.49682617 C-41.03439643 136.94952788 -43.31195117 137.98619959 -46.7265625 138.0546875 C-49.94358423 136.56225474 -51.49075362 134.52407312 -53.6875 131.75 C-54.11538818 131.21568359 -54.54327637 130.68136719 -54.98413086 130.13085938 C-56.33746096 128.43159307 -57.67030631 126.71780472 -59 125 C-59.42506836 124.45666016 -59.85013672 123.91332031 -60.28808594 123.35351562 C-62.8049779 120.1360855 -65.28837249 116.89497165 -67.75341797 113.63769531 C-69.0340505 111.95526621 -70.33010989 110.28562275 -71.62890625 108.6171875 C-72.46119986 107.53666037 -73.29324092 106.45593865 -74.125 105.375 C-75.24261719 103.93253906 -75.24261719 103.93253906 -76.3828125 102.4609375 C-78 100 -78 100 -78 97 C-71.92052483 95.02827832 -65.77808383 93.41089478 -59.5625 91.9375 C-58.45974731 91.67042236 -58.45974731 91.67042236 -57.3347168 91.39794922 C-53.16996225 90.41446947 -49.140094 89.79268507 -44.875 89.375 C-41.77540081 88.82445064 -40.35059961 88.38362745 -38.20141602 86.03198242 C-37.66186279 85.21060791 -37.12230957 84.3892334 -36.56640625 83.54296875 C-35.96828125 82.63772461 -35.37015625 81.73248047 -34.75390625 80.79980469 C-32.09914402 76.56194093 -29.55493369 72.27249969 -27.0625 67.9375 C-20.90077271 57.36160566 -14.36573577 47.05065906 -7.7265625 36.76953125 C-7.11586914 35.81643066 -6.50517578 34.86333008 -5.87597656 33.88134766 C-4.57829844 31.88821944 -3.24988319 29.91489141 -1.89746094 27.95849609 C-1.2377832 26.98605957 -0.57810547 26.01362305 0.1015625 25.01171875 C0.70564941 24.14377686 1.30973633 23.27583496 1.93212891 22.3815918 C3.29839627 20.06181381 3.29839627 20.06181381 2.25146484 17.82739258 C1.83848145 17.22435303 1.42549805 16.62131348 1 16 C-1.25644643 11.48710714 -1.24011233 7.9623215 -1 3 C-0.67 2.01 -0.34 1.02 0 0 Z " fill="#E1B473" transform="translate(199,64)"/>
<path d="M0 0 C2.02613283 1.29327628 4.02514795 2.6296945 6 4 C6.93118652 4.30953613 7.86237305 4.61907227 8.82177734 4.93798828 C14.45594355 6.8206602 19.46396293 9.96895734 24.625 12.875 C25.75679687 13.50019531 26.88859375 14.12539062 28.0546875 14.76953125 C29.14265625 15.37925781 30.230625 15.98898438 31.3515625 16.6171875 C32.83390381 17.44645752 32.83390381 17.44645752 34.34619141 18.29248047 C36.94454287 19.96431764 38.91320713 21.7337912 41 24 C16.00598996 47.79237494 -18.23126335 71.07864582 -53.9296875 70.33203125 C-61.3981573 69.98585957 -68.67090681 68.40251843 -75.98828125 66.95703125 C-81.65153374 65.84413751 -87.23137303 65.20006799 -93 65 C-94.52367187 64.92265625 -94.52367187 64.92265625 -96.078125 64.84375 C-114.49722677 64.30986299 -132.61124911 70.46839318 -148.97387695 78.49682617 C-152.03439643 79.94952788 -154.31195117 80.98619959 -157.7265625 81.0546875 C-160.94358423 79.56225474 -162.49075362 77.52407312 -164.6875 74.75 C-165.11538818 74.21568359 -165.54327637 73.68136719 -165.98413086 73.13085938 C-167.33746096 71.43159307 -168.67030631 69.71780472 -170 68 C-170.42506836 67.45666016 -170.85013672 66.91332031 -171.28808594 66.35351562 C-173.8049779 63.1360855 -176.28837249 59.89497165 -178.75341797 56.63769531 C-180.0340505 54.95526621 -181.33010989 53.28562275 -182.62890625 51.6171875 C-183.46119986 50.53666037 -184.29324092 49.45593865 -185.125 48.375 C-186.24261719 46.93253906 -186.24261719 46.93253906 -187.3828125 45.4609375 C-189 43 -189 43 -189 40 C-176.74830217 36.02647638 -163.99519507 31.98957447 -151 33 C-151.33 34.98 -151.66 36.96 -152 39 C-151.34 39 -150.68 39 -150 39 C-150 39.66 -150 40.32 -150 41 C-147.69 41.66 -145.38 42.32 -143 43 C-143.165 43.5775 -143.33 44.155 -143.5 44.75 C-144.14462031 47.26664369 -144.14462031 47.26664369 -144 51 C-142.2984375 51.9590625 -142.2984375 51.9590625 -140.5625 52.9375 C-139.92441406 53.29714844 -139.28632813 53.65679687 -138.62890625 54.02734375 C-131.21607172 56.76998238 -122.78817266 56.15910964 -115 56.125 C-113.87440674 56.12161621 -112.74881348 56.11823242 -111.58911133 56.11474609 C-84.84924682 57.70638822 -84.84924682 57.70638822 -60 51 C-57.60339539 50.98551025 -55.20587488 51.062279 -52.8125 51.1875 C-44.4902542 51.41180905 -37.62295455 49.50466419 -29.86328125 46.67578125 C-27.01178716 45.64159157 -24.1301907 44.70074256 -21.25 43.75 C-20.32703125 43.43546875 -19.4040625 43.1209375 -18.453125 42.796875 C-16.3136521 42.10188699 -14.189466 41.51155748 -12 41 C-12 40.34 -12 39.68 -12 39 C-9.525 38.505 -9.525 38.505 -7 38 C-6.67 37.01 -6.34 36.02 -6 35 C-1.84763881 32.62722218 2.59440923 30.85034812 7 29 C3.54110281 24.82049923 0.01713599 23.67237866 -5 22 C-4.01 19.525 -4.01 19.525 -3 17 C-2.01 17 -1.02 17 0 17 C0 16.34 0 15.68 0 15 C-1.98 14.505 -1.98 14.505 -4 14 C-4 13.34 -4 12.68 -4 12 C-4.94875 11.896875 -5.8975 11.79375 -6.875 11.6875 C-10 11 -10 11 -12 8 C-12 6.0625 -12 6.0625 -11 4 C-7.40264112 1.05670637 -4.70121477 -0.94024295 0 0 Z " fill="#83A247" transform="translate(310,121)"/>
<path d="M0 0 C2.02613283 1.29327628 4.02514795 2.6296945 6 4 C6.90492188 4.29261719 7.80984375 4.58523437 8.7421875 4.88671875 C12.4868075 6.16635508 15.78285018 7.95720741 19.1875 9.9375 C19.80302734 10.28490234 20.41855469 10.63230469 21.05273438 10.99023438 C24.08787099 12.73634222 26.60283887 14.45929629 29 17 C30.20361088 17.77062024 31.43374072 18.50148077 32.6875 19.1875 C33.780625 19.785625 34.87375 20.38375 36 21 C35.67 22.65 35.34 24.3 35 26 C34.01 26 33.02 26 32 26 C31.99097656 26.69222656 31.98195313 27.38445312 31.97265625 28.09765625 C30.45868809 32.61523995 27.16155745 34.64195194 23.4375 37.4375 C22.74591797 38.00404297 22.05433594 38.57058594 21.34179688 39.15429688 C16.23029251 43.03675359 16.23029251 43.03675359 12.79345703 42.93408203 C10.66015625 42.41015625 10.66015625 42.41015625 7 41 C4.21081851 39.89459074 4.21081851 39.89459074 2 40 C1.67 40.99 1.34 41.98 1 43 C-0.93359375 43.80859375 -0.93359375 43.80859375 -3.4375 44.4375 C-7.88000446 45.6462156 -12.04573725 47.14934436 -16.28515625 48.9375 C-24.55865676 52.1754743 -32.96824756 54.25069073 -41.62304688 56.19335938 C-42.51701172 56.39896484 -43.41097656 56.60457031 -44.33203125 56.81640625 C-45.13358643 56.99631104 -45.9351416 57.17621582 -46.76098633 57.36157227 C-48.99867075 57.91360716 -48.99867075 57.91360716 -50.87231445 59.00488281 C-60.49795388 63.5067883 -74.17609807 62.35979749 -84.625 62.3125 C-85.35869812 62.31233887 -86.09239624 62.31217773 -86.84832764 62.31201172 C-99.09843087 62.29337684 -110.95178482 61.3265519 -123 59 C-123 58.67 -123 58.34 -123 58 C-121.26435791 57.97812622 -121.26435791 57.97812622 -119.49365234 57.95581055 C-89.09380156 57.80236417 -89.09380156 57.80236417 -59 54 C-58.21915039 53.85159668 -57.43830078 53.70319336 -56.63378906 53.55029297 C-42.71393432 50.85271323 -29.28060326 46.75980759 -16.0390625 41.69921875 C-14 41 -14 41 -12 41 C-12 40.34 -12 39.68 -12 39 C-10.35 38.67 -8.7 38.34 -7 38 C-6.67 37.01 -6.34 36.02 -6 35 C-1.84763881 32.62722218 2.59440923 30.85034812 7 29 C3.54110281 24.82049923 0.01713599 23.67237866 -5 22 C-4.01 19.525 -4.01 19.525 -3 17 C-2.01 17 -1.02 17 0 17 C0 16.34 0 15.68 0 15 C-1.32 14.67 -2.64 14.34 -4 14 C-4 13.34 -4 12.68 -4 12 C-4.94875 11.896875 -5.8975 11.79375 -6.875 11.6875 C-10 11 -10 11 -12 8 C-12 6.0625 -12 6.0625 -11 4 C-7.40264112 1.05670637 -4.70121477 -0.94024295 0 0 Z " fill="#84A246" transform="translate(310,121)"/>
<path d="M0 0 C2.0625 1.625 2.0625 1.625 4.0625 3.625 C4.3125 6.625 4.3125 6.625 4.0625 9.625 C2.0625 11.625 2.0625 11.625 -1.5625 11.75 C-3.7665781 11.70173552 -5.96863499 11.62391136 -8.171875 11.546875 C-10.09346577 11.50479637 -12.01659027 11.55876173 -13.9375 11.625 C-14.5975 12.285 -15.2575 12.945 -15.9375 13.625 C-15.28523438 13.71136719 -14.63296875 13.79773438 -13.9609375 13.88671875 C-6.87095846 15.02655314 -2.95858098 16.68445959 1.5 22.5 C2.39347555 25.87535209 1.94637194 28.26628664 1.0625 31.625 C-2.4552533 35.92447626 -6.33093216 39.27971439 -11.9453125 40.0234375 C-13.48832031 40.01183594 -13.48832031 40.01183594 -15.0625 40 C-16.09632813 40.00773437 -17.13015625 40.01546875 -18.1953125 40.0234375 C-20.9375 39.625 -20.9375 39.625 -22.75 38.2265625 C-24.18292294 36.29400196 -24.78674164 35.03713369 -24.9375 32.625 C-23.20220764 30.20990239 -22.19086873 29.67303372 -19.23828125 29.11328125 C-18.25214844 29.05527344 -17.26601562 28.99726563 -16.25 28.9375 C-15.25613281 28.87175781 -14.26226562 28.80601562 -13.23828125 28.73828125 C-12.47902344 28.70089844 -11.71976563 28.66351563 -10.9375 28.625 C-10.9375 27.965 -10.9375 27.305 -10.9375 26.625 C-12.11828125 26.23828125 -13.2990625 25.8515625 -14.515625 25.453125 C-16.07312586 24.92770302 -17.63040613 24.40162687 -19.1875 23.875 C-19.96480469 23.62234375 -20.74210938 23.3696875 -21.54296875 23.109375 C-25.83506667 21.6419911 -29.17830385 20.43461399 -31.9375 16.625 C-32.01264531 12.4920082 -31.45960446 10.33236734 -29 7 C-21.06611014 0.84718745 -9.88658039 -4.62776104 0 0 Z " fill="#4F663E" transform="translate(184.9375,216.375)"/>
<path d="M0 0 C4.92584558 5.20732247 7.22601797 11.32741166 9.3515625 18.046875 C9.96403589 20.04691317 9.96403589 20.04691317 11 22 C11.44720497 27.25465839 11.44720497 27.25465839 9.875 29.875 C7.14747535 31.51151479 5.12026907 31.32502803 2 31 C1.01 30.34 0.02 29.68 -1 29 C-1.4125 29.474375 -1.825 29.94875 -2.25 30.4375 C-5.14049652 33.01830047 -7.62512504 32.96592046 -11.4375 33.3125 C-15.61145763 32.94636337 -17.07789841 31.92210159 -20 29 C-21.47896861 26.04206277 -21.4355582 24.29779776 -21 21 C-19.23326287 18.42973228 -17.19598005 16.20905136 -15 14 C-16.32 13.34 -17.64 12.68 -19 12 C-19.32420072 7.35312297 -18.96807592 4.66062697 -16 1 C-13.0625 -0.75 -13.0625 -0.75 -10 -2 C-9.34 -2.28875 -8.68 -2.5775 -8 -2.875 C-4.70748983 -3.08078189 -2.74848947 -1.71780592 0 0 Z M-8 9 C-8.33 9.66 -8.66 10.32 -9 11 C-8.01 10.67 -7.02 10.34 -6 10 C-6.66 9.67 -7.32 9.34 -8 9 Z " fill="#3E582C" transform="translate(243,222)"/>
<path d="M0 0 C0.721875 0.598125 1.44375 1.19625 2.1875 1.8125 C4.87018672 4.06645204 4.87018672 4.06645204 7.8125 5.3125 C10 7 10 7 10.5625 10.3125 C9.90961326 14.59253532 8.61527034 16.58561927 6 20 C5.360625 21.051875 4.72125 22.10375 4.0625 23.1875 C1.89466056 26.14364469 0.10294277 27.17005939 -3 29 C-4.03357147 30.64605826 -5.04060332 32.30963442 -6 34 C-6.66 34 -7.32 34 -8 34 C-8.185625 35.11375 -8.185625 35.11375 -8.375 36.25 C-9.38598389 40.69832912 -10.21767642 42.42955572 -14 45.1875 C-17.5497377 47.94071119 -18.05783977 50.90642922 -18.7734375 55.20703125 C-18.84820312 55.79871094 -18.92296875 56.39039063 -19 57 C-19.99 57 -20.98 57 -22 57 C-21.67 57.66 -21.34 58.32 -21 59 C-20.95977609 61.3329866 -20.95679753 63.66706666 -21 66 C-21.66 66 -22.32 66 -23 66 C-23.268125 66.763125 -23.53625 67.52625 -23.8125 68.3125 C-25 71 -25 71 -26.375 72.3125 C-28.51508716 74.5348982 -29.7463798 76.96538406 -31.1875 79.6875 C-31.71730469 80.68136719 -32.24710938 81.67523438 -32.79296875 82.69921875 C-33.19128906 83.45847656 -33.58960938 84.21773438 -34 85 C-35.98 84.67 -37.96 84.34 -40 84 C-40 83.34 -40 82.68 -40 82 C-40.66 82 -41.32 82 -42 82 C-41.67 80.02 -41.34 78.04 -41 76 C-41.99 75.67 -42.98 75.34 -44 75 C-43.24364258 74.61626221 -42.48728516 74.23252441 -41.70800781 73.8371582 C-38.57235298 71.70987704 -37.46486627 69.91984468 -35.671875 66.60546875 C-35.07568359 65.53345215 -34.47949219 64.46143555 -33.86523438 63.35693359 C-33.24970703 62.24914551 -32.63417969 61.14135742 -32 60 C-30.74628148 57.90558705 -29.4806186 55.81827784 -28.203125 53.73828125 C-27.23814087 52.16639038 -27.23814087 52.16639038 -26.25366211 50.56274414 C-25.59245361 49.49016357 -24.93124512 48.41758301 -24.25 47.3125 C-23.90405792 46.75061981 -23.55811584 46.18873962 -23.20169067 45.60983276 C-18.85151675 38.54774854 -14.45445278 31.51933128 -9.9375 24.5625 C-9.50252197 23.88896484 -9.06754395 23.21542969 -8.61938477 22.52148438 C-6.69476598 19.55307408 -4.73901089 16.62893386 -2.703125 13.734375 C-2.03796875 12.77015625 -1.3728125 11.8059375 -0.6875 10.8125 C0.17294922 9.61560547 0.17294922 9.61560547 1.05078125 8.39453125 C2.31400367 5.88886924 2.31400367 5.88886924 1.16796875 2.69921875 C0.78253906 1.80847656 0.39710938 0.91773437 0 0 Z " fill="#E9D6C3" transform="translate(200,78)"/>
<path d="M0 0 C2.375 0.3125 2.375 0.3125 5 1 C7.02350324 4.03525486 7.32124018 5.19426202 7.625 8.6875 C7.69976562 9.49574219 7.77453125 10.30398437 7.8515625 11.13671875 C7.92503906 12.05904297 7.92503906 12.05904297 8 13 C8.886875 12.175 9.77375 11.35 10.6875 10.5 C12.86220387 8.69971448 13.8612717 8.02903616 16.6875 7.4375 C19 8 19 8 20.875 9.75 C22 12 22 12 21.875 14 C20.85537729 16.33056619 19.69436187 18.1023147 18 20 C17.34 20 16.68 20 16 20 C18.65661799 25.46477499 18.65661799 25.46477499 21.75 30.6875 C23.20609337 33.38127274 23.40795038 34.98116722 23 38 C21 40 21 40 17.6875 40.125 C13.00666119 38.69694748 12.11302081 36.85951396 9.84765625 32.71484375 C9.56792969 32.14894531 9.28820312 31.58304688 9 31 C6.87961365 33.61514317 4.86908256 36.19637616 3 39 C0.5 39.3125 0.5 39.3125 -2 39 C-5.04157354 35.95842646 -4.56160198 32.34765689 -4.75 28.25 C-4.8113916 26.97467407 -4.8113916 26.97467407 -4.87402344 25.67358398 C-5.57787496 6.3593904 -5.57787496 6.3593904 0 0 Z " fill="#405A2F" transform="translate(262,215)"/>
<path d="M0 0 C3.77555377 1.30692246 5.68598779 2.6698846 8.4375 5.5625 C10.61998332 10.36396331 10.45234598 13.96727169 9 19 C6.31753905 24.38335807 2.6049526 28.00574554 -2.921875 30.37890625 C-7.61228516 31.78073936 -11.5246193 31.42559059 -16.25 30.0625 C-20.19542496 27.10343128 -21.75001943 23.72476931 -23 19 C-22.86203975 14.79221247 -22.2100782 11.56907038 -20 8 C-17.6875 6.11328125 -17.6875 6.11328125 -15 4.3125 C-14.113125 3.71050781 -13.22625 3.10851562 -12.3125 2.48828125 C-8.19349229 -0.16263418 -4.83961053 -0.4875727 0 0 Z M-8.625 11.1875 C-11.1357984 12.76917131 -11.1357984 12.76917131 -11.8125 15.1875 C-11.874375 15.785625 -11.93625 16.38375 -12 17 C-8.79191085 19.1387261 -7.72301503 19.47730962 -4 19 C-1.66608797 16.21885944 -1.66608797 16.21885944 -2.375 13.3125 C-2.58125 12.549375 -2.7875 11.78625 -3 11 C-5.97534708 9.63092075 -5.97534708 9.63092075 -8.625 11.1875 Z " fill="#657A54" transform="translate(310,225)"/>
<path d="M0 0 C0 0.99 0 1.98 0 3 C-2.12282669 4.00460531 -4.24833021 5.00355602 -6.375 6 C-7.55835938 6.556875 -8.74171875 7.11375 -9.9609375 7.6875 C-13 9 -13 9 -15 9 C-15.33 9.99 -15.66 10.98 -16 12 C-17.93359375 12.80859375 -17.93359375 12.80859375 -20.4375 13.4375 C-24.88000446 14.6462156 -29.04573725 16.14934436 -33.28515625 17.9375 C-41.55865676 21.1754743 -49.96824756 23.25069073 -58.62304688 25.19335938 C-59.51701172 25.39896484 -60.41097656 25.60457031 -61.33203125 25.81640625 C-62.13358643 25.99631104 -62.9351416 26.17621582 -63.76098633 26.36157227 C-65.99867075 26.91360716 -65.99867075 26.91360716 -67.87231445 28.00488281 C-77.49795388 32.5067883 -91.17609807 31.35979749 -101.625 31.3125 C-102.35869812 31.31233887 -103.09239624 31.31217773 -103.84832764 31.31201172 C-116.09843087 31.29337684 -127.95178482 30.3265519 -140 28 C-140 27.67 -140 27.34 -140 27 C-138.26435791 26.97812622 -138.26435791 26.97812622 -136.49365234 26.95581055 C-106.09380156 26.80236417 -106.09380156 26.80236417 -76 23 C-75.21915039 22.85159668 -74.43830078 22.70319336 -73.63378906 22.55029297 C-56.26530826 19.18439132 -39.44635991 13.69695811 -23.19140625 6.734375 C-21 6 -21 6 -17 6 C-17 5.34 -17 4.68 -17 4 C-15.75264433 3.3490741 -14.50198168 2.70448331 -13.25 2.0625 C-12.20585937 1.52302734 -12.20585937 1.52302734 -11.140625 0.97265625 C-7.01441193 -0.90221064 -4.4158621 -1.10396552 0 0 Z " fill="#4A5E29" transform="translate(327,152)"/>
<path d="M0 0 C5.47326238 3.45679729 6.65063568 7.95786211 8.125 14 C9.07453772 18.24261534 9.66935411 22.14731691 9.375 26.5 C7.6875 28.4375 7.6875 28.4375 5.375 29.5 C2.6525955 29.36719978 1.02933677 28.98083838 -1.171875 27.36328125 C-3.24870638 24.70024747 -3.62923417 22.09868328 -4.3125 18.8125 C-4.56386719 17.63300781 -4.81523437 16.45351562 -5.07421875 15.23828125 C-5.25597656 14.33464844 -5.43773437 13.43101562 -5.625 12.5 C-9.40599909 16.28099909 -8.97152411 21.03663162 -9.34375 26.1015625 C-9.625 28.5 -9.625 28.5 -10.625 29.5 C-13.5625 29.75 -13.5625 29.75 -16.625 29.5 C-19.34580154 25.41879769 -19.15016489 21.99244386 -19.375 17.1875 C-19.43042969 16.34509766 -19.48585937 15.50269531 -19.54296875 14.63476562 C-19.79249171 9.79931321 -19.61171059 6.02768465 -17.625 1.5 C-16.625 0.5 -16.625 0.5 -14.25 0.375 C-11.625 0.5 -11.625 0.5 -8.625 1.5 C-7.201875 0.9740625 -7.201875 0.9740625 -5.75 0.4375 C-2.625 -0.5 -2.625 -0.5 0 0 Z " fill="#566C45" transform="translate(209.625,225.5)"/>
<path d="M0 0 C0.495 1.485 0.495 1.485 1 3 C0.08807147 4.38478036 -0.8339637 5.76407897 -1.80859375 7.10546875 C-4.12274646 10.78535092 -5.49117371 14.9390101 -7 19 C-7.66 19 -8.32 19 -9 19 C-9.309375 19.61875 -9.61875 20.2375 -9.9375 20.875 C-10.625 22.25 -11.3125 23.625 -12 25 C-12.66 25 -13.32 25 -14 25 C-14.2371875 25.680625 -14.474375 26.36125 -14.71875 27.0625 C-16.56663075 31.29910465 -19.16291101 35.00077429 -21.72265625 38.828125 C-23.90335607 42.13875839 -25.57360919 45.31241823 -27 49 C-28.33333333 50.33333333 -29.66666667 51.66666667 -31 53 C-31.7872678 55.1381966 -31.7872678 55.1381966 -32 57 C-32.66 57 -33.32 57 -34 57 C-34.268125 57.70125 -34.53625 58.4025 -34.8125 59.125 C-37.10231989 64.66877447 -39.99632604 69.82125178 -43 75 C-43.66 73.68 -44.32 72.36 -45 71 C-44.01 70.505 -44.01 70.505 -43 70 C-42.67 69.01 -42.34 68.02 -42 67 C-43.32 66.67 -44.64 66.34 -46 66 C-45.01 66 -44.02 66 -43 66 C-42.89429688 65.44441406 -42.78859375 64.88882813 -42.6796875 64.31640625 C-41.86767068 61.54901558 -40.61951665 59.40233717 -39.125 56.9375 C-38.61195313 56.08027344 -38.09890625 55.22304687 -37.5703125 54.33984375 C-36.18193574 52.2710933 -34.7825306 50.71632232 -33 49 C-32.67 48.34 -32.34 47.68 -32 47 C-31.34 47 -30.68 47 -30 47 C-30.33 44.03 -30.66 41.06 -31 38 C-30.01 38 -29.02 38 -28 38 C-28.12375 36.989375 -28.2475 35.97875 -28.375 34.9375 C-27.93381722 30.30508084 -26.75272778 28.6639668 -23.66015625 25.359375 C-21.5451005 23.62751758 -19.65560037 23.44260006 -17 23 C-16.31976489 21.33882499 -15.65571162 19.67100703 -15 18 C-13.83044429 16.35186747 -12.59607723 14.74847113 -11.3125 13.1875 C-10.25482422 11.89779297 -10.25482422 11.89779297 -9.17578125 10.58203125 C-6.16619063 7.01050629 -3.11253325 3.48214657 0 0 Z " fill="#DD7C60" transform="translate(209,97)"/>
<path d="M0 0 C0.99 0.33 1.98 0.66 3 1 C2.34 1.66 1.68 2.32 1 3 C1.65226563 3.08636719 2.30453125 3.17273438 2.9765625 3.26171875 C10.06654154 4.40155314 13.97891902 6.05945959 18.4375 11.875 C19.33097555 15.25035209 18.88387194 17.64128664 18 21 C14.4822467 25.29947626 10.60656784 28.65471439 4.9921875 29.3984375 C3.44917969 29.38683594 3.44917969 29.38683594 1.875 29.375 C0.84117187 29.38273437 -0.19265625 29.39046875 -1.2578125 29.3984375 C-4 29 -4 29 -5.8125 27.6015625 C-7.24542294 25.66900196 -7.84924164 24.41213369 -8 22 C-6.26470764 19.58490239 -5.25336873 19.04803372 -2.30078125 18.48828125 C-1.31464844 18.43027344 -0.32851562 18.37226563 0.6875 18.3125 C1.68136719 18.24675781 2.67523438 18.18101562 3.69921875 18.11328125 C4.45847656 18.07589844 5.21773437 18.03851563 6 18 C6 17.34 6 16.68 6 16 C-2.415 13.03 -2.415 13.03 -11 10 C-6.52468723 8.88117181 -6.00297637 9.31264673 -2 11 C-0.07096868 11.2759478 1.8689032 11.48449903 3.8125 11.625 C5.27623047 11.73714844 5.27623047 11.73714844 6.76953125 11.8515625 C7.50558594 11.90054688 8.24164063 11.94953125 9 12 C8.67 10.35 8.34 8.7 8 7 C4.7 6.34 1.4 5.68 -2 5 C-2 3.68 -2 2.36 -2 1 C-1.34 0.67 -0.68 0.34 0 0 Z " fill="#647854" transform="translate(168,227)"/>
<path d="M0 0 C4.22488728 1.50888831 5.65504658 4.32623964 8 8 C10.9313883 9.46569415 13.88632266 9.62086218 17.125 10.0625 C19.04699219 10.32740234 19.04699219 10.32740234 21.0078125 10.59765625 C21.99523437 10.73042969 22.98265625 10.86320312 24 11 C24.12375 11.63808594 24.2475 12.27617188 24.375 12.93359375 C24.58125 13.61550781 24.7875 14.29742187 25 15 C26.31647119 15.69937532 27.65022151 16.36729133 29 17 C29.33 17.99 29.66 18.98 30 20 C30.66 20 31.32 20 32 20 C32 20.99 32 21.98 32 23 C31.02417969 23.01417969 30.04835937 23.02835938 29.04296875 23.04296875 C27.13451172 23.11451172 27.13451172 23.11451172 25.1875 23.1875 C23.29064453 23.23970703 23.29064453 23.23970703 21.35546875 23.29296875 C17.82103116 23.64288711 17.82103116 23.64288711 16.17578125 26.55078125 C15.78777344 27.35902344 15.39976562 28.16726562 15 29 C14.34 29 13.68 29 13 29 C12.9484375 28.39671875 12.896875 27.7934375 12.84375 27.171875 C12.23031583 22.25003479 12.23031583 22.25003479 9.19140625 18.58203125 C7.15676819 17.60764495 5.10595933 16.80485178 3 16 C0 14 0 14 -1 11 C-1.1328125 9.0625 -1.1328125 9.0625 -1.125 7 C-1.12757813 6.319375 -1.13015625 5.63875 -1.1328125 4.9375 C-1 3 -1 3 0 0 Z " fill="#829F42" transform="translate(199,64)"/>
<path d="M0 0 C3.0603333 1.7655769 5.50587755 3.50587755 8 6 C9.155 6.165 10.31 6.33 11.5 6.5 C15 7 15 7 17 9 C17 10.32 17 11.64 17 13 C17.62648438 12.97679688 18.25296875 12.95359375 18.8984375 12.9296875 C19.71570313 12.91164063 20.53296875 12.89359375 21.375 12.875 C22.18710937 12.85179688 22.99921875 12.82859375 23.8359375 12.8046875 C26 13 26 13 28 15 C28.1953125 17.1640625 28.1953125 17.1640625 28.125 19.625 C28.10695313 20.44226563 28.08890625 21.25953125 28.0703125 22.1015625 C28.04710937 22.72804688 28.02390625 23.35453125 28 24 C25.63414997 24.85047751 24.49401496 25.22316051 22.15649414 24.16723633 C21.53895264 23.72661865 20.92141113 23.28600098 20.28515625 22.83203125 C19.59873047 22.35056641 18.91230469 21.86910156 18.20507812 21.37304688 C17.49802734 20.85806641 16.79097656 20.34308594 16.0625 19.8125 C15.35931641 19.31685547 14.65613281 18.82121094 13.93164062 18.31054688 C10.93727187 16.18614467 8.02790703 14.02279784 5.18359375 11.69921875 C3.02153146 9.82214735 3.02153146 9.82214735 0 9 C0 8.34 0 7.68 0 7 C-0.86625 6.814375 -0.86625 6.814375 -1.75 6.625 C-4.02335767 5.99351176 -5.9253529 5.11141809 -8 4 C-8 3.01 -8 2.02 -8 1 C-5.13391871 -0.43304064 -3.18699217 -0.30644155 0 0 Z " fill="#D57168" transform="translate(242,88)"/>
<path d="M0 0 C4.92584558 5.20732247 7.22601797 11.32741166 9.3515625 18.046875 C9.96403589 20.04691317 9.96403589 20.04691317 11 22 C11.44720497 27.25465839 11.44720497 27.25465839 9.875 29.875 C7.14747535 31.51151479 5.12026907 31.32502803 2 31 C1.01 30.34 0.02 29.68 -1 29 C-1.4125 29.474375 -1.825 29.94875 -2.25 30.4375 C-5.14049652 33.01830047 -7.62512504 32.96592046 -11.4375 33.3125 C-15.61145763 32.94636337 -17.07789841 31.92210159 -20 29 C-21.47896861 26.04206277 -21.4355582 24.29779776 -21 21 C-19.23326287 18.42973228 -17.19598005 16.20905136 -15 14 C-16.32 13.34 -17.64 12.68 -19 12 C-19.32420072 7.35312297 -18.96807592 4.66062697 -16 1 C-13.0625 -0.75 -13.0625 -0.75 -10 -2 C-9.34 -2.28875 -8.68 -2.5775 -8 -2.875 C-4.70748983 -3.08078189 -2.74848947 -1.71780592 0 0 Z M-10.1875 1.375 C-10.88230469 1.63023437 -11.57710937 1.88546875 -12.29296875 2.1484375 C-14.19129826 2.88198623 -14.19129826 2.88198623 -15 5 C-13.91256712 7.11922127 -13.91256712 7.11922127 -12 9 C-8.87413125 9.33397787 -8.87413125 9.33397787 -6 9 C-5.67 9.99 -5.34 10.98 -5 12 C-5.59167969 12.15855469 -6.18335938 12.31710938 -6.79296875 12.48046875 C-11.99089504 14.01525612 -15.80524068 15.36244615 -19 20 C-19.3962858 22.80528633 -19.24198889 25.14453105 -19 28 C-18.34 28 -17.68 28 -17 28 C-16.67 28.99 -16.34 29.98 -16 31 C-14.41753293 31.08153933 -12.83383727 31.13943557 -11.25 31.1875 C-10.36828125 31.22230469 -9.4865625 31.25710937 -8.578125 31.29296875 C-5.92407528 31.21245185 -5.92407528 31.21245185 -3.96875 29.46875 C-2 28 -2 28 0.359375 27.92578125 C1.54273438 28.11720703 1.54273438 28.11720703 2.75 28.3125 C3.54921875 28.43238281 4.3484375 28.55226562 5.171875 28.67578125 C5.77515625 28.78277344 6.3784375 28.88976562 7 29 C8.55271035 21.86090786 7.50444331 17.36214386 4 11 C3.34 11 2.68 11 2 11 C1.87882812 10.37351563 1.75765625 9.74703125 1.6328125 9.1015625 C1.46523437 8.28429687 1.29765625 7.46703125 1.125 6.625 C0.96257812 5.81289062 0.80015625 5.00078125 0.6328125 4.1640625 C0.13341068 1.81326077 0.13341068 1.81326077 -2 0 C-5.46300449 0 -7.09181243 0.20177507 -10.1875 1.375 Z M-8 9 C-8.33 9.66 -8.66 10.32 -9 11 C-8.01 10.67 -7.02 10.34 -6 10 C-6.66 9.67 -7.32 9.34 -8 9 Z " fill="#A7B198" transform="translate(243,222)"/>
<path d="M0 0 C5.80342274 1.48805711 10.17590879 4.59097555 15 8 C11.25339966 12.85536214 7.21208452 16.45935144 2.3125 20.125 C1.57644531 20.68123047 0.84039062 21.23746094 0.08203125 21.81054688 C-5.34034544 25.86359026 -10.87493556 29.73415241 -16.5 33.5 C-17.21631592 33.97969238 -17.93263184 34.45938477 -18.6706543 34.95361328 C-22.33682423 37.3683237 -26.05681152 39.68547671 -29.84375 41.90625 C-30.56755859 42.33228516 -31.29136719 42.75832031 -32.03710938 43.19726562 C-34 44 -34 44 -37 43 C-35.02 42.505 -35.02 42.505 -33 42 C-33 40.68 -33 39.36 -33 38 C-31.68 38.33 -30.36 38.66 -29 39 C-28.83322718 35.58343976 -28.83322718 35.58343976 -29 32 C-29.66 31.34 -30.32 30.68 -31 30 C-30.071875 29.566875 -29.14375 29.13375 -28.1875 28.6875 C-25.05725756 27.25425758 -25.05725756 27.25425758 -23.375 25.25 C-22.92125 24.8375 -22.4675 24.425 -22 24 C-19.36981491 24.28180555 -17.20536224 25.32052616 -14.74609375 26.3125 C-10.97477474 27.40344194 -10.97477474 27.40344194 -7.83203125 25.33203125 C-6.83558594 24.50058594 -5.83914063 23.66914063 -4.8125 22.8125 C-3.80832031 21.99394531 -2.80414063 21.17539063 -1.76953125 20.33203125 C-0.85558594 19.56246094 0.05835938 18.79289062 1 18 C2.15435547 17.17242187 2.15435547 17.17242187 3.33203125 16.328125 C5.19298149 15.12502788 5.19298149 15.12502788 5.5 12.9375 C6 11 6 11 8.0625 9.75 C8.701875 9.5025 9.34125 9.255 10 9 C10 8.01 10 7.02 10 6 C9.278125 5.731875 8.55625 5.46375 7.8125 5.1875 C5.01528026 4.00645167 2.53580025 2.66638302 0 1 C0 0.67 0 0.34 0 0 Z " fill="#82A147" transform="translate(336,136)"/>
<path d="M0 0 C0.66 0 1.32 0 2 0 C1.34 1.98 0.68 3.96 0 6 C0.99 6.66 1.98 7.32 3 8 C2.67 9.98 2.34 11.96 2 14 C3.32 14.99 4.64 15.98 6 17 C0.20200116 21.0333905 -4.01370081 21.50604984 -11 21 C-11.33 20.01 -11.66 19.02 -12 18 C-12.66 18 -13.32 18 -14 18 C-14.6037001 10.87633885 -14.6037001 10.87633885 -12.0625 7.1875 C-8.24666755 4.46190539 -4.49664777 3.20498404 0 2 C0 1.34 0 0.68 0 0 Z " fill="#435B31" transform="translate(238,232)"/>
<path d="M0 0 C2.375 0.3125 2.375 0.3125 5 1 C7.34770643 4.52155964 7.37669614 6.50771843 7.625 10.6875 C7.69976562 11.86699219 7.77453125 13.04648438 7.8515625 14.26171875 C7.90054687 15.16535156 7.94953125 16.06898438 8 17 C7.01 17.66 6.02 18.32 5 19 C4.67 15.7 4.34 12.4 4 9 C3.01 9 2.02 9 1 9 C-0.68158146 12.66864051 -1.24028871 15.49416047 -1.1953125 19.51953125 C-1.18886719 20.54111328 -1.18242187 21.56269531 -1.17578125 22.61523438 C-1.15064453 24.19788086 -1.15064453 24.19788086 -1.125 25.8125 C-1.11597656 26.88693359 -1.10695313 27.96136719 -1.09765625 29.06835938 C-1.07415306 31.71246854 -1.04129575 34.35611872 -1 37 C-0.01 37 0.98 37 2 37 C3.4192897 35.00676556 4.48266026 32.91415079 5.62109375 30.75 C6.07613281 30.1725 6.53117187 29.595 7 29 C8.32 29 9.64 29 11 29 C15 35.75 15 35.75 15 38 C15.99 38 16.98 38 18 38 C18.165 36.741875 18.33 35.48375 18.5 34.1875 C18.63921875 33.12595703 18.63921875 33.12595703 18.78125 32.04296875 C19.053233 29.84528294 19.053233 29.84528294 19 27 C22.89565217 32.23478261 22.89565217 32.23478261 23.375 35.75 C23 38 23 38 21 40 C17.6875 40.125 17.6875 40.125 14 39 C11.91455349 36.535853 10.42713515 33.88715359 9 31 C6.87961365 33.61514317 4.86908256 36.19637616 3 39 C0.5 39.3125 0.5 39.3125 -2 39 C-5.04157354 35.95842646 -4.56160198 32.34765689 -4.75 28.25 C-4.8113916 26.97467407 -4.8113916 26.97467407 -4.87402344 25.67358398 C-5.57787496 6.3593904 -5.57787496 6.3593904 0 0 Z " fill="#849374" transform="translate(262,215)"/>
<path d="M0 0 C0 0.66 0 1.32 0 2 C-5.28 2.66 -10.56 3.32 -16 4 C-16 4.66 -16 5.32 -16 6 C-9.4 5.34 -2.8 4.68 4 4 C-4.8761834 9.9174556 -20.20586874 8.35966273 -30.625 8.3125 C-31.35869812 8.31233887 -32.09239624 8.31217773 -32.84832764 8.31201172 C-45.09843087 8.29337684 -56.95178482 7.3265519 -69 5 C-69 4.67 -69 4.34 -69 4 C-67.26435791 3.97812622 -67.26435791 3.97812622 -65.49365234 3.95581055 C-37.04780179 3.76528007 -37.04780179 3.76528007 -8.82421875 0.62109375 C-5.77269969 0.12549464 -3.0735404 -0.14110066 0 0 Z " fill="#56682C" transform="translate(256,175)"/>
<path d="M0 0 C2.875 0.6875 2.875 0.6875 6 2 C7.98456791 5.33768239 8.21905594 8.16652105 8 12 C8.66 12 9.32 12 10 12 C10.33 11.01 10.66 10.02 11 9 C11.99 9 12.98 9 14 9 C14 8.34 14 7.68 14 7 C17.96 7 21.92 7 26 7 C26.495 7.99 26.495 7.99 27 9 C25.96875 8.95875 24.9375 8.9175 23.875 8.875 C20.0581571 8.99812396 17.45122076 9.39478104 14 11 C12.60761953 12.86747263 12.60761953 12.86747263 12 15 C11.67 15.99 11.34 16.98 11 18 C10.34 18 9.68 18 9 18 C8.9175 18.5775 8.835 19.155 8.75 19.75 C7.79289509 22.62131472 6.1256206 23.8743794 4 26 C3.32650839 27.66392045 2.6590841 29.33032028 2 31 C1.01 31.66 0.02 32.32 -1 33 C-0.21953935 29.09769674 1.40716896 25.63165478 3 22 C3.67276716 20.3357865 4.34206835 18.67013418 5 17 C-3.56035444 26.48408594 -3.56035444 26.48408594 -10.75 37 C-12 39 -12 39 -15 40 C-14.01 37.03 -13.02 34.06 -12 31 C-11.34 31 -10.68 31 -10 31 C-9.731875 30.236875 -9.46375 29.47375 -9.1875 28.6875 C-8.04204753 26.09516021 -7.23584819 24.69924463 -5 23 C-4.01 23 -3.02 23 -2 23 C-1.731875 22.236875 -1.46375 21.47375 -1.1875 20.6875 C-0.0249027 18.05635874 0.97291463 16.94262348 3 15 C5.41442216 11.44190419 5.53674929 8.21731582 5 4 C2.60943058 2.0645852 2.60943058 2.0645852 0 1 C0 0.67 0 0.34 0 0 Z " fill="#F7CC84" transform="translate(204,81)"/>
<path d="M0 0 C2.475 0.495 2.475 0.495 5 1 C3.4894958 4.7762605 3.4894958 4.7762605 1.1796875 5.83203125 C-1.66595997 7.35684952 -3.13147772 9.28459247 -5.125 11.8125 C-5.80820313 12.66457031 -6.49140625 13.51664063 -7.1953125 14.39453125 C-8.92838354 16.89660567 -9.94082972 19.16461054 -11 22 C-11.66 22.99 -12.32 23.98 -13 25 C-13 25.99 -13 26.98 -13 28 C-13.845625 28.804375 -14.69125 29.60875 -15.5625 30.4375 C-16.7690625 31.7059375 -16.7690625 31.7059375 -18 33 C-17.95502158 35.27523089 -17.95502158 35.27523089 -17 37 C-18.485 37.495 -18.485 37.495 -20 38 C-21.31034495 39.72612703 -21.31034495 39.72612703 -22.4375 41.8125 C-24.33020482 45.02037735 -26.36488006 47.36488006 -29 50 C-29.73323796 52.01508358 -29.73323796 52.01508358 -30 54 C-30.33 54.99 -30.66 55.98 -31 57 C-29.515 56.505 -29.515 56.505 -28 56 C-27.34 56.66 -26.68 57.32 -26 58 C-24.01643517 58.71408334 -22.01684563 59.38617742 -20 60 C-20 60.33 -20 60.66 -20 61 C-25.37992836 60.66009167 -29.53273547 60.31442207 -34 57 C-33.45501461 53.07610521 -32.37376487 51.10415406 -30 48 C-28.98034573 45.67518826 -27.97940398 43.34205301 -27 41 C-26.34 40.01 -25.68 39.02 -25 38 C-24.34 38 -23.68 38 -23 38 C-22.9175 37.2575 -22.835 36.515 -22.75 35.75 C-21.841796 32.41991868 -20.41540618 31.41540618 -18 29 C-17.29675558 27.34101093 -16.5957455 25.68101119 -15.91015625 24.01464844 C-14.24918296 20.33805197 -12.08102981 16.97280289 -9.9375 13.5625 C-9.49083984 12.83095703 -9.04417969 12.09941406 -8.58398438 11.34570312 C-7.44742652 9.52619122 -6.23011721 7.75761172 -5 6 C-4.34 6 -3.68 6 -3 6 C-2.690625 5.38125 -2.38125 4.7625 -2.0625 4.125 C-1.375 2.75 -0.6875 1.375 0 0 Z " fill="#F7BEA7" transform="translate(200,116)"/>
<path d="M0 0 C5.49937917 0.28445065 8.16391488 0.71717802 12.30078125 4.58203125 C14.42239829 6.35248409 16.63088785 7.62651265 19.0625 8.9375 C19.87847656 9.37964844 20.69445312 9.82179688 21.53515625 10.27734375 C24.74633378 11.21881418 26.08724992 10.53149588 29 9 C30.2375 8.1646875 30.2375 8.1646875 31.5 7.3125 C34 6 34 6 36.3125 6 C40.22081071 7.45425515 43.55069284 9.68049072 47 12 C46.01 12.33 45.02 12.66 44 13 C43.05125 12.360625 42.1025 11.72125 41.125 11.0625 C37.84387514 8.89695759 36.78791197 8.24241761 33 9 C28.78981833 11.29287913 28.78981833 11.29287913 26 15 C21.21521178 15.09764874 16.72314313 14.77112541 12 14 C11.67 13.01 11.34 12.02 11 11 C10.2575 10.9175 9.515 10.835 8.75 10.75 C5.43668651 9.84636905 4.11884168 8.66817101 2 6 C2 5.01 2 4.02 2 3 C1.34 3 0.68 3 0 3 C0 2.01 0 1.02 0 0 Z " fill="#D5B97F" transform="translate(272,113)"/>
<path d="M0 0 C0 1.98 0 3.96 0 6 C0.66 6 1.32 6 2 6 C4.77471079 12.24309927 5.37634203 17.19796625 5 24 C2.69 23.67 0.38 23.34 -2 23 C-2.24234375 21.86820313 -2.4846875 20.73640625 -2.734375 19.5703125 C-3.07203928 18.08834148 -3.41062927 16.60658117 -3.75 15.125 C-3.90726563 14.37863281 -4.06453125 13.63226563 -4.2265625 12.86328125 C-5.15393832 8.53740629 -5.15393832 8.53740629 -8.140625 5.4921875 C-8.75421875 5.32976562 -9.3678125 5.16734375 -10 5 C-10 2 -10 2 -8.9375 0.25 C-5.90310914 -1.70767152 -3.39923923 -0.70550248 0 0 Z " fill="#40592E" transform="translate(212,228)"/>
<path d="M0 0 C2.0625 1.625 2.0625 1.625 4.0625 3.625 C4.3125 6.625 4.3125 6.625 4.0625 9.625 C2.0625 11.625 2.0625 11.625 -0.109375 11.85546875 C-4.81749721 11.77700005 -9.30855003 11.59951578 -13.9375 10.625 C-13.339375 10.233125 -12.74125 9.84125 -12.125 9.4375 C-9.65870825 7.39400112 -8.392635 5.46251325 -6.9375 2.625 C-6.9375 1.965 -6.9375 1.305 -6.9375 0.625 C-9.2475 1.285 -11.5575 1.945 -13.9375 2.625 C-13.9375 2.955 -13.9375 3.285 -13.9375 3.625 C-14.60136719 3.73457031 -15.26523438 3.84414062 -15.94921875 3.95703125 C-20.84629478 4.83636023 -24.83911428 5.61951714 -28.9375 8.625 C-28.9375 7.965 -28.9375 7.305 -28.9375 6.625 C-20.84475211 0.63278426 -9.85635629 -4.61361358 0 0 Z " fill="#6B7F5B" transform="translate(184.9375,216.375)"/>
<path d="M0 0 C0.33 0 0.66 0 1 0 C1.33 4.95 1.66 9.9 2 15 C2.99 13.02 3.98 11.04 5 9 C7.53878883 6.46121117 9.08822774 5.17367091 12.625 4.5 C15 5 15 5 16.875 6.75 C18 9 18 9 17.875 11 C16.85537729 13.33056619 15.69436187 15.1023147 14 17 C13.34 17 12.68 17 12 17 C12.66 19.31 13.32 21.62 14 24 C13.01 24 12.02 24 11 24 C11 23.01 11 22.02 11 21 C10.01 20.67 9.02 20.34 8 20 C7.360625 19.46375 6.72125 18.9275 6.0625 18.375 C5.381875 17.92125 4.70125 17.4675 4 17 C2.68 17.33 1.36 17.66 0 18 C0 12.06 0 6.12 0 0 Z " fill="#5E724E" transform="translate(266,218)"/>
<path d="M0 0 C1.2065625 0.0309375 1.2065625 0.0309375 2.4375 0.0625 C1.798125 0.371875 1.15875 0.68125 0.5 1 C-1.49860821 1.8970163 -1.49860821 1.8970163 -2.5625 3.0625 C-2.6615473 4.58857589 -2.69329611 6.11915207 -2.6953125 7.6484375 C-2.69660156 8.57914063 -2.69789063 9.50984375 -2.69921875 10.46875 C-2.69535156 11.4484375 -2.69148437 12.428125 -2.6875 13.4375 C-2.69136719 14.40945312 -2.69523438 15.38140625 -2.69921875 16.3828125 C-2.69792969 17.31609375 -2.69664062 18.249375 -2.6953125 19.2109375 C-2.69418457 20.06864746 -2.69305664 20.92635742 -2.69189453 21.81005859 C-2.65118276 24.23194935 -2.65118276 24.23194935 -1.5625 27.0625 C-0.2425 27.0625 1.0775 27.0625 2.4375 27.0625 C2.47488281 26.25425781 2.51226562 25.44601563 2.55078125 24.61328125 C2.61652344 23.54464844 2.68226563 22.47601563 2.75 21.375 C2.80800781 20.31925781 2.86601562 19.26351562 2.92578125 18.17578125 C3.48725293 14.75980472 4.25832726 12.7503126 6.4375 10.0625 C7.7575 10.0625 9.0775 10.0625 10.4375 10.0625 C11.64215156 14.72048604 12.72297412 19.29899415 13.4375 24.0625 C16.0775 24.7225 18.7175 25.3825 21.4375 26.0625 C21.1264315 23.99978361 20.81358484 21.93733534 20.5 19.875 C20.32597656 18.72644531 20.15195313 17.57789063 19.97265625 16.39453125 C19.52370687 13.59924788 19.01667838 10.83316414 18.4375 8.0625 C17.7775 8.0625 17.1175 8.0625 16.4375 8.0625 C16.4375 6.0825 16.4375 4.1025 16.4375 2.0625 C18.4375 3.0625 18.4375 3.0625 19.21875 4.84765625 C24.19683392 20.62060692 24.19683392 20.62060692 23.4375 26.0625 C21.75 28 21.75 28 19.4375 29.0625 C16.7150955 28.92969978 15.09183677 28.54333838 12.890625 26.92578125 C10.81379362 24.26274747 10.43326583 21.66118328 9.75 18.375 C9.49863281 17.19550781 9.24726563 16.01601562 8.98828125 14.80078125 C8.80652344 13.89714844 8.62476563 12.99351562 8.4375 12.0625 C4.65650091 15.84349909 5.09097589 20.59913162 4.71875 25.6640625 C4.4375 28.0625 4.4375 28.0625 3.4375 29.0625 C0.5 29.3125 0.5 29.3125 -2.5625 29.0625 C-5.28330154 24.98129769 -5.08766489 21.55494386 -5.3125 16.75 C-5.36792969 15.90759766 -5.42335937 15.06519531 -5.48046875 14.19726562 C-5.72999171 9.36181321 -5.54921059 5.59018465 -3.5625 1.0625 C-2.5625 0.0625 -2.5625 0.0625 0 0 Z " fill="#D0D8C1" transform="translate(195.5625,225.9375)"/>
<path d="M0 0 C2.1875 1.4375 2.1875 1.4375 4 3 C2.75108714 8.62010786 1.06918803 11.93081197 -3 16 C-3.7872678 18.1381966 -3.7872678 18.1381966 -4 20 C-4.66 20 -5.32 20 -6 20 C-6.268125 20.70125 -6.53625 21.4025 -6.8125 22.125 C-9.10231989 27.66877447 -11.99632604 32.82125178 -15 38 C-15.66 36.68 -16.32 35.36 -17 34 C-16.01 33.505 -16.01 33.505 -15 33 C-14.67 32.01 -14.34 31.02 -14 30 C-15.32 29.67 -16.64 29.34 -18 29 C-17.01 29 -16.02 29 -15 29 C-14.89429688 28.44441406 -14.78859375 27.88882813 -14.6796875 27.31640625 C-13.86767068 24.54901558 -12.61951665 22.40233717 -11.125 19.9375 C-10.35542969 18.65166016 -10.35542969 18.65166016 -9.5703125 17.33984375 C-8.18193574 15.2710933 -6.7825306 13.71632232 -5 12 C-4.67 11.34 -4.34 10.68 -4 10 C-3.34 10 -2.68 10 -2 10 C-2.33 7.03 -2.66 4.06 -3 1 C-2.01 0.67 -1.02 0.34 0 0 Z " fill="#C2A960" transform="translate(181,134)"/>
<path d="M0 0 C1.9375 0.8125 1.9375 0.8125 4 2 C4.33 2.99 4.66 3.98 5 5 C5.62648438 4.97679688 6.25296875 4.95359375 6.8984375 4.9296875 C7.71570313 4.91164063 8.53296875 4.89359375 9.375 4.875 C10.18710937 4.85179688 10.99921875 4.82859375 11.8359375 4.8046875 C14 5 14 5 16 7 C16.1953125 9.1640625 16.1953125 9.1640625 16.125 11.625 C16.10695313 12.44226563 16.08890625 13.25953125 16.0703125 14.1015625 C16.04710937 14.72804688 16.02390625 15.35453125 16 16 C14.3203125 16.6875 14.3203125 16.6875 12 17 C7.75627769 14.99051155 3.2708688 12.23309803 0.90625 8.078125 C0.11827305 5.36655725 0 2.81374767 0 0 Z " fill="#456030" transform="translate(254,96)"/>
<path d="M0 0 C-1.96382007 1.50559539 -3.78263366 2.89131683 -6 4 C-6 4.66 -6 5.32 -6 6 C-5.01 6.66 -4.02 7.32 -3 8 C-4.7015625 8.7115625 -4.7015625 8.7115625 -6.4375 9.4375 C-9.75740166 10.63622083 -9.75740166 10.63622083 -11 12 C-11.04080783 13.99958364 -11.04254356 16.00045254 -11 18 C-11.99 17.67 -12.98 17.34 -14 17 C-14.33 16.01 -14.66 15.02 -15 14 C-15.99 14.495 -15.99 14.495 -17 15 C-17.66 14.67 -18.32 14.34 -19 14 C-19.625 10.9375 -19.625 10.9375 -19 7 C-13.37402829 1.0403817 -8.00532156 -0.90382663 0 0 Z " fill="#4A6039" transform="translate(309,226)"/>
<path d="M0 0 C3.05296726 -0.29355454 5.95503931 -0.4192717 9 0 C11.97534329 2.5399272 12.90364743 3.91603362 13.25 7.8125 C13.1675 8.534375 13.085 9.25625 13 10 C14.051875 10.37125 14.051875 10.37125 15.125 10.75 C21.35347936 13.45803451 26.62433624 17.906855 32 22 C27.9563608 22 26.27982728 20.2958791 23 18 C19.63514087 15.78411716 17.00152524 14.57164646 13 14 C13 14.99 13 15.98 13 17 C13.66 17 14.32 17 15 17 C15 17.66 15 18.32 15 19 C8.25 17.125 8.25 17.125 6 16 C6 15.34 6 14.68 6 14 C5.278125 13.731875 4.55625 13.46375 3.8125 13.1875 C1.02409874 12.01017502 -1.44095724 10.60854116 -4 9 C-3.67 8.01 -3.34 7.02 -3 6 C-2.31292969 6.5053125 -1.62585938 7.010625 -0.91796875 7.53125 C0.43361328 8.50578125 0.43361328 8.50578125 1.8125 9.5 C2.70582031 10.1496875 3.59914063 10.799375 4.51953125 11.46875 C6.93962084 13.26264658 6.93962084 13.26264658 10 13 C10.02689216 11.52093108 10.04634621 10.04172517 10.0625 8.5625 C10.07410156 7.73878906 10.08570313 6.91507812 10.09765625 6.06640625 C10.23267348 4.00836062 10.23267348 4.00836062 9 3 C7.48530552 2.76807135 5.96245438 2.58784762 4.4375 2.4375 C3.61121094 2.35371094 2.78492188 2.26992187 1.93359375 2.18359375 C1.29550781 2.12300781 0.65742188 2.06242187 0 2 C0 1.34 0 0.68 0 0 Z " fill="#D2B48C" transform="translate(259,99)"/>
<path d="M0 0 C2 1 2 1 4 3 C4.99 3.33 5.98 3.66 7 4 C4.36 8.29 1.72 12.58 -1 17 C-5 15 -5 15 -6 13 C-6.52510758 9.77433916 -6.54161394 7.78794565 -4.66015625 5.05078125 C-3.15765149 3.30787573 -1.6220736 1.6317288 0 0 Z " fill="#D96F6A" transform="translate(187,121)"/>
<path d="M0 0 C4.22488728 1.50888831 5.65504658 4.32623964 8 8 C11.89515008 9.94757504 16.6237043 9.88448813 20.91015625 10.40234375 C22.43962891 10.69818359 22.43962891 10.69818359 24 11 C24.33 11.66 24.66 12.32 25 13 C22.20689395 12.71889511 19.41601125 12.42563948 16.625 12.125 C15.43390625 12.00705078 15.43390625 12.00705078 14.21875 11.88671875 C8.2265625 11.2265625 8.2265625 11.2265625 6 9 C5.67 9.99 5.34 10.98 5 12 C6.98 12 8.96 12 11 12 C10.34 13.32 9.68 14.64 9 16 C2.25 15.125 2.25 15.125 0 14 C-0.89214652 11.32356043 -1.13540211 9.74615622 -1.125 7 C-1.12757813 6.319375 -1.13015625 5.63875 -1.1328125 4.9375 C-1 3 -1 3 0 0 Z " fill="#B8C98D" transform="translate(199,64)"/>
<path d="M0 0 C0.90105469 0.11085937 1.80210937 0.22171875 2.73046875 0.3359375 C3.41753906 0.43132812 4.10460937 0.52671875 4.8125 0.625 C-9.71106052 8.45793152 -30.72734659 6.90841818 -46.75 6.75 C-48.55142722 6.73993344 -50.35286 6.73081419 -52.15429688 6.72265625 C-56.49883918 6.70097219 -60.84310517 6.66665287 -65.1875 6.625 C-65.1875 6.295 -65.1875 5.965 -65.1875 5.625 C-63.92268799 5.5748877 -62.65787598 5.52477539 -61.35473633 5.47314453 C-56.60376382 5.28294709 -51.85323905 5.08303109 -47.1027832 4.88037109 C-45.05764333 4.79443949 -43.012395 4.71104593 -40.96704102 4.63037109 C-28.48322019 4.13602277 -11.20510596 -1.45520857 0 0 Z " fill="#B89D58" transform="translate(255.1875,172.375)"/>
<path d="M0 0 C-2.09782787 2.09782787 -3.3799207 2.6509396 -6.125 3.625 C-6.84945312 3.88539063 -7.57390625 4.14578125 -8.3203125 4.4140625 C-9.15175781 4.70410156 -9.15175781 4.70410156 -10 5 C-9.34 6.32 -8.68 7.64 -8 9 C-6.02 9 -4.04 9 -2 9 C-1.67 10.32 -1.34 11.64 -1 13 C-2.60032137 13.84069415 -4.20541171 14.67231505 -5.8125 15.5 C-6.70582031 15.9640625 -7.59914062 16.428125 -8.51953125 16.90625 C-11 18 -11 18 -14 18 C-13.01 17.01 -12.02 16.02 -11 15 C-12.32 14.34 -13.64 13.68 -15 13 C-15.32183159 8.3870805 -15.07082246 5.56611641 -12 2 C-7.92988794 0.41717864 -4.35640363 -0.26402446 0 0 Z M-4 10 C-4.33 10.66 -4.66 11.32 -5 12 C-4.01 11.67 -3.02 11.34 -2 11 C-2.66 10.67 -3.32 10.34 -4 10 Z " fill="#738264" transform="translate(239,221)"/>
<path d="M0 0 C0.81726563 0.10183594 1.63453125 0.20367187 2.4765625 0.30859375 C3.10304688 0.39238281 3.72953125 0.47617188 4.375 0.5625 C0.79756035 2.94745977 -2.68081724 3.71376467 -6.8125 4.625 C-7.60317871 4.8012793 -8.39385742 4.97755859 -9.20849609 5.15917969 C-16.98594978 6.79800582 -24.69523698 7.34643016 -32.625 7.5625 C-32.625 6.9025 -32.625 6.2425 -32.625 5.5625 C-27.05432723 3.97087921 -22.41398419 3.35575056 -16.625 3.5625 C-16.625 2.9025 -16.625 2.2425 -16.625 1.5625 C-15.57699219 1.47162109 -15.57699219 1.47162109 -14.5078125 1.37890625 C-13.59773438 1.29511719 -12.68765625 1.21132812 -11.75 1.125 C-10.84507812 1.04378906 -9.94015625 0.96257812 -9.0078125 0.87890625 C-1.21370968 -0.15604839 -1.21370968 -0.15604839 0 0 Z " fill="#3F5B27" transform="translate(272.625,173.4375)"/>
<path d="M0 0 C3.96 0 7.92 0 12 0 C12.33 0.66 12.66 1.32 13 2 C11.96875 1.95875 10.9375 1.9175 9.875 1.875 C6.0581571 1.99812396 3.45122076 2.39478104 0 4 C-1.39238047 5.86747263 -1.39238047 5.86747263 -2 8 C-2.33 8.99 -2.66 9.98 -3 11 C-3.66 11 -4.32 11 -5 11 C-5.0825 11.5775 -5.165 12.155 -5.25 12.75 C-6.20710491 15.62131472 -7.8743794 16.8743794 -10 19 C-10.67349161 20.66392045 -11.3409159 22.33032028 -12 24 C-12.99 24.66 -13.98 25.32 -15 26 C-13.63318068 19.16590342 -10.33350775 13.74494876 -6.40234375 8.11328125 C-5.08679047 6.1307901 -4.01403088 4.14935731 -3 2 C-2.01 2 -1.02 2 0 2 C0 1.34 0 0.68 0 0 Z " fill="#EDD9AD" transform="translate(218,88)"/>
<path d="M0 0 C0.99 0.66 1.98 1.32 3 2 C1.768606 4.46278801 0.21935077 5.42497687 -2 7 C-2.125 4.625 -2.125 4.625 -2 2 C-1.34 1.34 -0.68 0.68 0 0 Z M-6 7 C-3.9375 7.4375 -3.9375 7.4375 -2 8 C-3.50831438 10.71496589 -4.88666256 12.88999601 -7.125 15.0625 C-9.14411665 17.14892053 -9.54772714 18.19590825 -10 21 C-10.33 21.99 -10.66 22.98 -11 24 C-10.01 23.67 -9.02 23.34 -8 23 C-7.34 23.66 -6.68 24.32 -6 25 C-4.01643517 25.71408334 -2.01684563 26.38617742 0 27 C0 27.33 0 27.66 0 28 C-5.37992836 27.66009167 -9.53273547 27.31442207 -14 24 C-13.45501461 20.07610521 -12.37376487 18.10415406 -10 15 C-8.92198985 12.69651606 -7.97540868 10.34984819 -7 8 C-6.67 7.67 -6.34 7.34 -6 7 Z " fill="#F7D5AD" transform="translate(180,149)"/>
<path d="M0 0 C-17.88982729 9.33382293 -38.16462285 13.58181468 -58 8 C-58 7.67 -58 7.34 -58 7 C-56.7625 6.979375 -55.525 6.95875 -54.25 6.9375 C-53.55390625 6.92589844 -52.8578125 6.91429687 -52.140625 6.90234375 C-50 7 -50 7 -48.20703125 7.4921875 C-44.9458636 8.24254466 -41.77816125 8.17117223 -38.4375 8.1875 C-37.76525391 8.19974609 -37.09300781 8.21199219 -36.40039062 8.22460938 C-32.70121763 8.23562975 -31.16028067 8.10685378 -28 6 C-25.45473047 5.47950668 -22.93825235 5.0285321 -20.375 4.625 C-14.70182231 3.66873901 -9.80648708 2.44123857 -4.69921875 -0.328125 C-3 -1 -3 -1 0 0 Z " fill="#C9D7A5" transform="translate(299,181)"/>
<path d="M0 0 C3.03334628 2.446247 3.94350088 3.76593221 4.875 7.625 C4.91625 8.73875 4.9575 9.8525 5 11 C3 13 3 13 -0.3125 13.125 C-4.99333881 11.69694748 -5.88697919 9.85951396 -8.15234375 5.71484375 C-8.43207031 5.14894531 -8.71179688 4.58304688 -9 4 C-11.12038635 6.61514317 -13.13091744 9.19637616 -15 12 C-17.625 12.1875 -17.625 12.1875 -20 12 C-20.33 11.34 -20.66 10.68 -21 10 C-20.278125 10.165 -19.55625 10.33 -18.8125 10.5 C-15.91901751 10.31967893 -15.91901751 10.31967893 -14.6953125 8.21875 C-13.86248844 6.74966904 -13.06591053 5.25939261 -12.30859375 3.75 C-11.87675781 3.1725 -11.44492187 2.595 -11 2 C-9.68 2 -8.36 2 -7 2 C-3 8.75 -3 8.75 -3 11 C-2.01 11 -1.02 11 0 11 C0.185625 9.741875 0.37125 8.48375 0.5625 7.1875 C0.66691406 6.47980469 0.77132813 5.77210938 0.87890625 5.04296875 C1.13904799 2.7974658 1.13904799 2.7974658 0 0 Z " fill="#BFC9AD" transform="translate(280,242)"/>
<path d="M0 0 C5.80342274 1.48805711 10.17590879 4.59097555 15 8 C11.06945164 13.16519377 6.63684119 16.83597086 1.4375 20.6875 C0.68275391 21.25533203 -0.07199219 21.82316406 -0.84960938 22.40820312 C-2.89495034 23.94536246 -4.94667185 25.47353819 -7 27 C-8.33376818 27.99941994 -9.66722336 28.99925818 -11 30 C-11.66 29.67 -12.32 29.34 -13 29 C-10.75043199 27.22861556 -8.50036258 25.45787453 -6.25 23.6875 C-5.29867188 22.93823242 -5.29867188 22.93823242 -4.328125 22.17382812 C-3.4 21.44389648 -3.4 21.44389648 -2.453125 20.69921875 C-1.855 20.22782471 -1.256875 19.75643066 -0.640625 19.27075195 C0.68981101 18.24025799 2.05158973 17.25031829 3.421875 16.2734375 C5.19563915 15.10633867 5.19563915 15.10633867 5.5 12.9375 C6 11 6 11 8.0625 9.75 C8.701875 9.5025 9.34125 9.255 10 9 C10 8.01 10 7.02 10 6 C9.278125 5.731875 8.55625 5.46375 7.8125 5.1875 C5.01528026 4.00645167 2.53580025 2.66638302 0 1 C0 0.67 0 0.34 0 0 Z " fill="#C6D3A2" transform="translate(336,136)"/>
<path d="M0 0 C1.9609375 0.015625 1.9609375 0.015625 4.375 0.25 C5.16648438 0.31703125 5.95796875 0.3840625 6.7734375 0.453125 C9.40192949 1.09871952 10.4017171 1.83458445 12 4 C12 4.99 12 5.98 12 7 C8.59598052 8.13732426 6.22543336 7.83989957 2.75 7.0625 C1.85796875 6.86785156 0.9659375 6.67320312 0.046875 6.47265625 C-0.62859375 6.31667969 -1.3040625 6.16070312 -2 6 C-1.125 1.125 -1.125 1.125 0 0 Z " fill="#40592E" transform="translate(165,232)"/>
<path d="M0 0 C2.31 0.66 4.62 1.32 7 2 C7.103125 2.721875 7.20625 3.44375 7.3125 4.1875 C8.63015505 9.57790701 12.20858329 13.74741578 15.5 18.125 C16.2734375 19.15882813 17.046875 20.19265625 17.84375 21.2578125 C19.84064699 23.91116324 19.84064699 23.91116324 21.73828125 25.73046875 C23.35431136 27.35650524 23.61649041 28.7756444 24 31 C18.88635131 26.00236777 14.44264523 20.58984704 10 15 C9.54270508 14.42491699 9.08541016 13.84983398 8.61425781 13.25732422 C7.21485408 11.48952962 5.82451607 9.71502552 4.4375 7.9375 C3.77488159 7.09735352 3.77488159 7.09735352 3.09887695 6.24023438 C0 2.23246032 0 2.23246032 0 0 Z " fill="#CEDAAC" transform="translate(127,170)"/>
<path d="M0 0 C0.33 1.98 0.66 3.96 1 6 C-1.0625 7.625 -1.0625 7.625 -4 9 C-7.75 8.375 -7.75 8.375 -11 7 C-11.33 6.01 -11.66 5.02 -12 4 C-10.75539217 3.32332002 -9.50403104 2.65905281 -8.25 2 C-7.55390625 1.62875 -6.8578125 1.2575 -6.140625 0.875 C-4 0 -4 0 0 0 Z " fill="#7FA140" transform="translate(328,155)"/>
<path d="M0 0 C1.62661041 3.25322083 0.72874588 6.5626411 0 10 C-1.3125 13.0625 -1.3125 13.0625 -3 16 C-3.35835937 16.63550781 -3.71671875 17.27101562 -4.0859375 17.92578125 C-5.04557469 19.62386266 -6.02140738 21.31277135 -7 23 C-7.66 21.68 -8.32 20.36 -9 19 C-8.34 18.67 -7.68 18.34 -7 18 C-6.67 17.01 -6.34 16.02 -6 15 C-7.32 14.67 -8.64 14.34 -10 14 C-9.01 14 -8.02 14 -7 14 C-6.89816406 13.44828125 -6.79632813 12.8965625 -6.69140625 12.328125 C-5.84495404 9.47792433 -4.49979966 7.27627179 -2.9375 4.75 C-2.38964844 3.85796875 -1.84179688 2.9659375 -1.27734375 2.046875 C-0.85582031 1.37140625 -0.43429688 0.6959375 0 0 Z " fill="#D6AD70" transform="translate(173,149)"/>
<path d="M0 0 C2 1 2 1 2.78125 2.78515625 C7.75933392 18.55810692 7.75933392 18.55810692 7 24 C5.3125 25.9375 5.3125 25.9375 3 27 C0.25 26.6875 0.25 26.6875 -2 26 C-2 25.01 -2 24.02 -2 23 C0.31 23.33 2.62 23.66 5 24 C4.6889315 21.93728361 4.37608484 19.87483534 4.0625 17.8125 C3.88847656 16.66394531 3.71445313 15.51539063 3.53515625 14.33203125 C3.08620687 11.53674788 2.57917838 8.77066414 2 6 C1.34 6 0.68 6 0 6 C0 4.02 0 2.04 0 0 Z " fill="#B0BAA1" transform="translate(212,228)"/>
<path d="M0 0 C4 0 4 0 6.25 2 C6.8275 2.66 7.405 3.32 8 4 C7 7 7 7 5.22265625 8.16796875 C4.50980469 8.50441406 3.79695313 8.84085938 3.0625 9.1875 C2.35222656 9.53167969 1.64195312 9.87585938 0.91015625 10.23046875 C-1 11 -1 11 -3 11 C-3 11.66 -3 12.32 -3 13 C-4.43344 13.53190541 -5.87195367 14.05015258 -7.3125 14.5625 C-8.51326172 14.99755859 -8.51326172 14.99755859 -9.73828125 15.44140625 C-12 16 -12 16 -15 15 C-13.35 14.67 -11.7 14.34 -10 14 C-9.67 13.01 -9.34 12.02 -9 11 C-4.84763881 8.62722218 -0.40559077 6.85034812 4 5 C2.68 3.35 1.36 1.7 0 0 Z " fill="#CAA04D" transform="translate(313,145)"/>
<path d="M0 0 C7.1760667 0.36488475 7.1760667 0.36488475 11 3.3125 C13 6 13 6 13 10 C9.2089881 8.55049545 5.6125362 6.84827434 2 5 C2 4.34 2 3.68 2 3 C1.34 3 0.68 3 0 3 C0 2.01 0 1.02 0 0 Z " fill="#D86C65" transform="translate(272,113)"/>
<path d="M0 0 C1.6498275 0.42218816 3.29483665 0.86324425 4.9375 1.3125 C6.31228516 1.67794922 6.31228516 1.67794922 7.71484375 2.05078125 C8.46894531 2.36402344 9.22304688 2.67726562 10 3 C10.33 3.99 10.66 4.98 11 6 C13.00016466 7.20882096 13.00016466 7.20882096 15 8 C15 8.66 15 9.32 15 10 C14.01 10.66 13.02 11.32 12 12 C11.77390663 14.12364481 11.77390663 14.12364481 13.5 15.625 C13.995 16.07875 14.49 16.5325 15 17 C12.36 16.34 9.72 15.68 7 15 C7.66 13.35 8.32 11.7 9 10 C9.99 10 10.98 10 12 10 C12 9.34 12 8.68 12 8 C10.68 7.67 9.36 7.34 8 7 C8 6.34 8 5.68 8 5 C7.05125 4.9175 6.1025 4.835 5.125 4.75 C4.09375 4.5025 3.0625 4.255 2 4 C0.8046875 1.953125 0.8046875 1.953125 0 0 Z " fill="#B99E48" transform="translate(298,128)"/>
<path d="M0 0 C-3.28899737 1.64449869 -6.85034736 0.95887015 -10.46875 0.83984375 C-13.17155657 0.73085981 -13.17155657 0.73085981 -15 3 C-17.20703125 3.52734375 -17.20703125 3.52734375 -19.8125 3.9375 C-23.78110402 4.65540956 -26.69474611 5.57614715 -30 8 C-30 7.34 -30 6.68 -30 6 C-21.62163397 -0.2036996 -9.93211711 -5.64987249 0 0 Z " fill="#9AA48C" transform="translate(186,217)"/>
<path d="M0 0 C-5.24813665 2.14023794 -10.51509465 4.23468275 -15.8125 6.25 C-17.12154297 6.75273437 -17.12154297 6.75273437 -18.45703125 7.265625 C-21.09866475 8.02849305 -23.26589774 8.13744141 -26 8 C-25.67 7.34 -25.34 6.68 -25 6 C-24.01 6 -23.02 6 -22 6 C-21.67 5.34 -21.34 4.68 -21 4 C-19.00428677 3.32060826 -17.00405227 2.65438441 -15 2 C-14.34 1.34 -13.68 0.68 -13 0 C-10.6670386 -0.04166002 -8.3329614 -0.04166002 -6 0 C-3.50907189 -1.24546405 -2.58919267 -0.7767578 0 0 Z " fill="#CD9F4D" transform="translate(298,162)"/>
<path d="M0 0 C1.485 0.99 1.485 0.99 3 2 C4.175625 2.12375 5.35125 2.2475 6.5625 2.375 C10 3 10 3 11.4375 5.0625 C11.7159375 6.0215625 11.7159375 6.0215625 12 7 C10.35 6.01 8.7 5.02 7 4 C7.33 6.97 7.66 9.94 8 13 C2.45665962 10.22832981 2.45665962 10.22832981 1.15625 6.73046875 C0.67629328 4.48949436 0.2818144 2.27395065 0 0 Z " fill="#B89372" transform="translate(247,92)"/>
<path d="M0 0 C2.5 0.1875 2.5 0.1875 5 1 C7.34770643 4.52155964 7.37669614 6.50771843 7.625 10.6875 C7.69976562 11.86699219 7.77453125 13.04648438 7.8515625 14.26171875 C7.90054687 15.16535156 7.94953125 16.06898438 8 17 C7.01 17.66 6.02 18.32 5 19 C5 13.72 5 8.44 5 3 C3.02 3 1.04 3 -1 3 C-1.33 4.98 -1.66 6.96 -2 9 C-2.33 9 -2.66 9 -3 9 C-2.25 2.25 -2.25 2.25 0 0 Z " fill="#BFC9B1" transform="translate(262,215)"/>
<path d="M0 0 C2.4375 0.75 2.4375 0.75 5 2 C5.33333333 3.33333333 5.66666667 4.66666667 6 6 C8.49034386 7.29660434 8.49034386 7.29660434 11 8 C11 8.99 11 9.98 11 11 C7.05352382 11.98844951 3.72607036 11.96191905 -0.3125 11.5625 C-1.38113281 11.46066406 -2.44976562 11.35882813 -3.55078125 11.25390625 C-4.35902344 11.17011719 -5.16726562 11.08632812 -6 11 C-6 11.66 -6 12.32 -6 13 C-6.66 13 -7.32 13 -8 13 C-7.67 12.01 -7.34 11.02 -7 10 C-2.38 10 2.24 10 7 10 C7 9.01 7 8.02 7 7 C6.34 7 5.68 7 5 7 C2.375 4.625 2.375 4.625 0 2 C0 1.34 0 0.68 0 0 Z " fill="#C6BA7A" transform="translate(224,77)"/>
<path d="M0 0 C4.41291294 4.88998461 5.12143614 7.44244859 5 14 C4.67 13.01 4.34 12.02 4 11 C3.34 11 2.68 11 2 11 C0.68 7.7 -0.64 4.4 -2 1 C-6.3164922 0.23826608 -9.74433453 -0.16063604 -14 1 C-13 -1 -13 -1 -9.8125 -2.3125 C-5.2311826 -3.1386392 -3.78688751 -2.60874473 0 0 Z " fill="#A5B297" transform="translate(243,222)"/>
<path d="M0 0 C0.90492188 0.23396484 0.90492188 0.23396484 1.828125 0.47265625 C3.02695312 0.76462891 3.02695312 0.76462891 4.25 1.0625 C5.43335938 1.35833984 5.43335938 1.35833984 6.640625 1.66015625 C9.11198822 2.01613075 10.62949969 1.66604765 13 1 C14 2 14 2 14.0625 4.5625 C14.041875 5.366875 14.02125 6.17125 14 7 C12.328125 7.7109375 12.328125 7.7109375 10 8 C7.421875 6.6015625 7.421875 6.6015625 4.75 4.625 C3.85796875 3.97789063 2.9659375 3.33078125 2.046875 2.6640625 C1.37140625 2.11492187 0.6959375 1.56578125 0 1 C0 0.67 0 0.34 0 0 Z " fill="#4B5B28" transform="translate(256,105)"/>
<path d="M0 0 C0.33 0.99 0.66 1.98 1 3 C-0.40333195 5.35255857 -1.82161123 7.49093839 -3.4375 9.6875 C-3.87126953 10.29400391 -4.30503906 10.90050781 -4.75195312 11.52539062 C-5.82544245 13.02355704 -6.91155165 14.5126661 -8 16 C-8.66 15.34 -9.32 14.68 -10 14 C-7.3650056 8.12193556 -4.76515136 4.33195579 0 0 Z " fill="#D9933F" transform="translate(209,97)"/>
<path d="M0 0 C2.875 0.6875 2.875 0.6875 6 2 C7.98456791 5.33768239 8.21905594 8.16652105 8 12 C8.66 12.33 9.32 12.66 10 13 C8.1875 15.5 8.1875 15.5 6 18 C5.01 18 4.02 18 3 18 C3.875 12.125 3.875 12.125 5 11 C5.50031206 7.58428147 5.50031206 7.58428147 5 4 C2.60943058 2.0645852 2.60943058 2.0645852 0 1 C0 0.67 0 0.34 0 0 Z " fill="#C3AD6C" transform="translate(204,81)"/>
<path d="M0 0 C1.125 1.75 1.125 1.75 2 4 C1.125 6.25 1.125 6.25 0 8 C0.99 7.67 1.98 7.34 3 7 C3.66 7.66 4.32 8.32 5 9 C6.98356483 9.71408334 8.98315437 10.38617742 11 11 C11 11.33 11 11.66 11 12 C5.62007164 11.66009167 1.46726453 11.31442207 -3 8 C-2.45276317 4.62537285 -1.9451 2.91765 0 0 Z " fill="#E1D6A4" transform="translate(169,165)"/>
<path d="M0 0 C0.763125 0.309375 1.52625 0.61875 2.3125 0.9375 C4.18789677 1.67893593 6.08684652 2.36228217 8 3 C8 3.66 8 4.32 8 5 C8.639375 5.103125 9.27875 5.20625 9.9375 5.3125 C10.618125 5.539375 11.29875 5.76625 12 6 C12.33 6.99 12.66 7.98 13 9 C11.68 9.99 10.36 10.98 9 12 C8.22227595 9.66682784 7.57584432 7.38564077 7 5 C4.03 4.505 4.03 4.505 1 4 C0.67 2.68 0.34 1.36 0 0 Z M8 12 C8.66 12.66 9.32 13.32 10 14 C9.01 14.495 9.01 14.495 8 15 C8 14.01 8 13.02 8 12 Z " fill="#EBB48B" transform="translate(234,92)"/>
<path d="M0 0 C0.33 0.66 0.66 1.32 1 2 C-1.4 8.4 -1.4 8.4 -4 11 C-4.309375 11.825 -4.61875 12.65 -4.9375 13.5 C-6 16 -6 16 -9 18 C-7.59322311 10.96611555 -4.24820621 5.62600281 0 0 Z " fill="#F8D2A5" transform="translate(212,96)"/>
<path d="M0 0 C3.03334628 2.446247 3.94350088 3.76593221 4.875 7.625 C4.91625 8.73875 4.9575 9.8525 5 11 C3 13 3 13 0.375 13.125 C-0.40875 13.08375 -1.1925 13.0425 -2 13 C-2 12.34 -2 11.68 -2 11 C-1.34 11 -0.68 11 0 11 C0.185625 9.741875 0.37125 8.48375 0.5625 7.1875 C0.66691406 6.47980469 0.77132813 5.77210938 0.87890625 5.04296875 C1.13904799 2.7974658 1.13904799 2.7974658 0 0 Z " fill="#9AA68C" transform="translate(280,242)"/>
<path d="M0 0 C0 3.20395416 -0.74335022 5.09399739 -2 8 C-2.66 8 -3.32 8 -4 8 C-4.66 9.32 -5.32 10.64 -6 12 C-6 9 -6 9 -5 6 C-6.98 7.32 -8.96 8.64 -11 10 C-9.44499019 6.18315774 -6.96404505 3.80804268 -4 1 C-3.67 1.99 -3.34 2.98 -3 4 C-2.01 2.68 -1.02 1.36 0 0 Z " fill="#E7A55E" transform="translate(204,108)"/>
<path d="M0 0 C2.125 0.375 2.125 0.375 4 1 C4 1.99 4 2.98 4 4 C2.39967863 4.84069415 0.79458829 5.67231505 -0.8125 6.5 C-2.15248047 7.19609375 -2.15248047 7.19609375 -3.51953125 7.90625 C-6 9 -6 9 -9 9 C-8.01 8.01 -7.02 7.02 -6 6 C-6.66 5.34 -7.32 4.68 -8 4 C-6.576875 3.566875 -6.576875 3.566875 -5.125 3.125 C-1.94788422 2.23174891 -1.94788422 2.23174891 0 0 Z M1 1 C0.67 1.66 0.34 2.32 0 3 C0.99 2.67 1.98 2.34 3 2 C2.34 1.67 1.68 1.34 1 1 Z " fill="#C1CDB4" transform="translate(234,230)"/>
<path d="M0 0 C0.99 0.33 1.98 0.66 3 1 C2.34 1.66 1.68 2.32 1 3 C1.68707031 3.09796875 2.37414062 3.1959375 3.08203125 3.296875 C3.98308594 3.44640625 4.88414062 3.5959375 5.8125 3.75 C6.70582031 3.88921875 7.59914062 4.0284375 8.51953125 4.171875 C11 5 11 5 14 9 C8.72 7.68 3.44 6.36 -2 5 C-2 3.68 -2 2.36 -2 1 C-1.34 0.67 -0.68 0.34 0 0 Z " fill="#BBC7AD" transform="translate(168,227)"/>
<path d="M0 0 C0.33 0.66 0.66 1.32 1 2 C-0.07674702 4.28258633 -1.19546116 6.4356434 -2.4375 8.625 C-2.77587891 9.23601562 -3.11425781 9.84703125 -3.46289062 10.4765625 C-4.30146192 11.988353 -5.14982577 13.49470399 -6 15 C-6.66 15 -7.32 15 -8 15 C-8.28875 15.804375 -8.5775 16.60875 -8.875 17.4375 C-10 20 -10 20 -12 21 C-10.32508169 16.11963459 -7.63208039 12.00847052 -4.875 7.6875 C-4.40707031 6.94693359 -3.93914062 6.20636719 -3.45703125 5.44335938 C-2.30835804 3.62658032 -1.15467631 1.81296963 0 0 Z " fill="#F5E9DC" transform="translate(180,119)"/>
<path d="M0 0 C-4.02738431 2.08459878 -8.16574117 3.56318926 -12.4375 5.0625 C-13.18837891 5.33126953 -13.93925781 5.60003906 -14.71289062 5.87695312 C-18.45295557 7.19600857 -22.06978499 8.36710255 -26 9 C-18.76950035 2.97458363 -9.4760144 -0.61135577 0 0 Z " fill="#CDDAA7" transform="translate(189,188)"/>
<path d="M0 0 C2.1875 1.4375 2.1875 1.4375 4 3 C3.45773019 6.79588866 1.79872437 8.47211993 -1 11 C-1 8.36 -1 5.72 -1 3 C-1.66 3 -2.32 3 -3 3 C-3 2.34 -3 1.68 -3 1 C-2.01 0.67 -1.02 0.34 0 0 Z " fill="#97944F" transform="translate(181,134)"/>
<path d="M0 0 C2.31 0.33 4.62 0.66 7 1 C7 1.66 7 2.32 7 3 C7.639375 3.268125 8.27875 3.53625 8.9375 3.8125 C11 5 11 5 12 8 C12.66 8 13.32 8 14 8 C14 8.99 14 9.98 14 11 C12.35 11 10.7 11 9 11 C9.66 10.67 10.32 10.34 11 10 C11 9.01 11 8.02 11 7 C10.34 7 9.68 7 9 7 C8.3503125 6.319375 8.3503125 6.319375 7.6875 5.625 C5.64822952 3.66125806 3.61073707 3.03055411 1 2 C0.67 1.34 0.34 0.68 0 0 Z " fill="#9CA456" transform="translate(217,76)"/>
<path d="M0 0 C-0.639375 0.309375 -1.27875 0.61875 -1.9375 0.9375 C-3.93610821 1.8345163 -3.93610821 1.8345163 -5 3 C-7.69235776 3.23678716 -10.36498156 3.42198025 -13.0625 3.5625 C-14.20041992 3.62727539 -14.20041992 3.62727539 -15.36132812 3.69335938 C-17.24065438 3.79973633 -19.12030244 3.90039934 -21 4 C-14.32562227 0.42229302 -7.47078902 -0.27166506 0 0 Z " fill="#CAD6AA" transform="translate(156,154)"/>
<path d="M0 0 C2.31 0.66 4.62 1.32 7 2 C7.33 3.65 7.66 5.3 8 7 C7.01 7.33 6.02 7.66 5 8 C0 2.25 0 2.25 0 0 Z " fill="#A9BC7A" transform="translate(127,170)"/>
<path d="M0 0 C0.33 0.99 0.66 1.98 1 3 C-0.546875 5.375 -0.546875 5.375 -2.75 8 C-3.46671875 8.86625 -4.1834375 9.7325 -4.921875 10.625 C-6.5590109 12.49601246 -8.20983575 14.27781667 -10 16 C-9.4739075 12.21213403 -8.61896089 9.82847776 -6 7 C-5.34 7 -4.68 7 -4 7 C-3.71125 6.21625 -3.4225 5.4325 -3.125 4.625 C-2 2 -2 2 0 0 Z " fill="#FBC364" transform="translate(206,97)"/>
<path d="M0 0 C0.33 0.99 0.66 1.98 1 3 C-0.6875 5.8125 -0.6875 5.8125 -3 9 C-4.051875 10.670625 -4.051875 10.670625 -5.125 12.375 C-5.74375 13.24125 -6.3625 14.1075 -7 15 C-7.66 15 -8.32 15 -9 15 C-8.67 13.02 -8.34 11.04 -8 9 C-7.01 9 -6.02 9 -5 9 C-5 8.34 -5 7.68 -5 7 C-4.34 6.67 -3.68 6.34 -3 6 C-2.29788106 4.34795544 -1.63028587 2.68076231 -1 1 C-0.67 0.67 -0.34 0.34 0 0 Z " fill="#EFD09F" transform="translate(209,89)"/>
<path d="M0 0 C0.66 0.33 1.32 0.66 2 1 C-3 4 -3 4 -8 7 C-8.87269531 7.58136719 -9.74539063 8.16273438 -10.64453125 8.76171875 C-11.42183594 9.17035156 -12.19914062 9.57898438 -13 10 C-13.99 9.67 -14.98 9.34 -16 9 C-14.68 8.67 -13.36 8.34 -12 8 C-12 6.68 -12 5.36 -12 4 C-10.948125 3.896875 -9.89625 3.79375 -8.8125 3.6875 C-5.09787667 3.01764989 -3.132309 1.96887994 0 0 Z " fill="#C4D29F" transform="translate(315,170)"/>
<path d="M0 0 C1.32 0.66 2.64 1.32 4 2 C-1.01571703 5.00943022 -4.30182562 5.46706347 -10 5 C-10.99 4.34 -11.98 3.68 -13 3 C-12.14535156 2.95101562 -11.29070312 2.90203125 -10.41015625 2.8515625 C-9.30542969 2.77679688 -8.20070313 2.70203125 -7.0625 2.625 C-5.40927734 2.52058594 -5.40927734 2.52058594 -3.72265625 2.4140625 C-2.37494141 2.20910156 -2.37494141 2.20910156 -1 2 C-0.67 1.34 -0.34 0.68 0 0 Z " fill="#A5B199" transform="translate(307,251)"/>
<path d="M0 0 C1 3 1 3 0.0625 5.3125 C-1.14926993 8.37756511 -1.15192141 10.73368961 -1 14 C-3.46468444 12.15148667 -3.96547258 11.2268945 -4.4375 8.125 C-3.90917428 4.35124488 -2.57702263 2.73808654 0 0 Z " fill="#CA7D71" transform="translate(185,123)"/>
<path d="M0 0 C1.65 0.33 3.3 0.66 5 1 C3.98590222 3.53524446 3.38502734 4.77139002 1 6.1875 C0.34 6.455625 -0.32 6.72375 -1 7 C-1.99 7.495 -1.99 7.495 -3 8 C-2.45276317 4.62537285 -1.9451 2.91765 0 0 Z " fill="#F8DBBA" transform="translate(200,116)"/>
<path d="M0 0 C2.97 1.98 2.97 1.98 6 4 C4.02 6.64 2.04 9.28 0 12 C0 8 0 4 0 0 Z " fill="#D3AA5F" transform="translate(249,101)"/>
<path d="M0 0 C2.475 0.99 2.475 0.99 5 2 C5 2.99 5 3.98 5 5 C3.68 5 2.36 5 1 5 C1 5.66 1 6.32 1 7 C0.01 7 -0.98 7 -2 7 C-1.34 4.69 -0.68 2.38 0 0 Z " fill="#829670" transform="translate(236,238)"/>
<path d="M0 0 C1.5625 1.25 1.5625 1.25 3 3 C2.78252874 6.37080456 1.09785412 8.44609064 -1 11 C-1.66 10.67 -2.32 10.34 -3 10 C-2.39009109 6.44219804 -1.4216319 3.3171411 0 0 Z " fill="#94A384" transform="translate(281,224)"/>
<path d="M0 0 C-3.56741255 2.48889248 -6.89041233 4.54955729 -11 6 C-11.33 5.01 -11.66 4.02 -12 3 C-10.75823305 2.29773859 -9.50614401 1.61370891 -8.25 0.9375 C-7.20585937 0.36322266 -7.20585937 0.36322266 -6.140625 -0.22265625 C-3.63859372 -1.1312406 -2.4667645 -0.88336837 0 0 Z " fill="#73923F" transform="translate(328,156)"/>
<path d="M0 0 C0 0.66 0 1.32 0 2 C-0.99 2.33 -1.98 2.66 -3 3 C-3.639375 3.845625 -4.27875 4.69125 -4.9375 5.5625 C-5.618125 6.366875 -6.29875 7.17125 -7 8 C-8.32 8 -9.64 8 -11 8 C-11.33 8.66 -11.66 9.32 -12 10 C-12 9.01 -12 8.02 -12 7 C-9.8828125 5.17578125 -9.8828125 5.17578125 -7.125 3.3125 C-6.22007812 2.68988281 -5.31515625 2.06726563 -4.3828125 1.42578125 C-2 0 -2 0 0 0 Z " fill="#A4B094" transform="translate(302,226)"/>
<path d="M0 0 C1 2 1 2 0.3125 4.9375 C-1.11268927 8.26294163 -2.19871213 8.92162513 -5 11 C-5.8042208 13.59855733 -5.8042208 13.59855733 -6 16 C-6.99 16 -7.98 16 -9 16 C-9 15.34 -9 14.68 -9 14 C-8.34 14 -7.68 14 -7 14 C-6.9175 13.2575 -6.835 12.515 -6.75 11.75 C-5.84717548 8.43964342 -4.43029893 7.35665351 -2 5 C-0.74563813 2.36777038 -0.74563813 2.36777038 0 0 Z " fill="#E9CD9B" transform="translate(184,140)"/>
<path d="M0 0 C3 1 3 1 4.25 2.625 C5.31741094 6.00513463 4.77338552 8.58421396 4 12 C3.01 12.495 3.01 12.495 2 13 C1.93941406 12.22914063 1.87882813 11.45828125 1.81640625 10.6640625 C1.73261719 9.66117188 1.64882812 8.65828125 1.5625 7.625 C1.48128906 6.62726563 1.40007812 5.62953125 1.31640625 4.6015625 C1.15034374 2.02072387 1.15034374 2.02072387 0 0 Z " fill="#ABB69F" transform="translate(182,236)"/>
<path d="M0 0 C-0.54339792 4.56454251 -1.79463821 7.9728176 -4 12 C-4.66 10.68 -5.32 9.36 -6 8 C-5.34 7.67 -4.68 7.34 -4 7 C-3.67 6.01 -3.34 5.02 -3 4 C-4.32 3.67 -5.64 3.34 -7 3 C-2.25 0 -2.25 0 0 0 Z " fill="#B0A65B" transform="translate(170,160)"/>
<path d="M0 0 C0.7528125 -0.00515625 1.505625 -0.0103125 2.28125 -0.015625 C4.7296721 0.27749596 6.37304054 1.03183231 8.5 2.25 C5.4020403 3.79897985 2.23783448 3.08239539 -1.125 2.8125 C-1.83140625 2.76029297 -2.5378125 2.70808594 -3.265625 2.65429688 C-5.01079987 2.52458793 -6.75545725 2.38795046 -8.5 2.25 C-5.54497399 0.55757601 -3.40004978 -0.02328801 0 0 Z " fill="#A7B598" transform="translate(177.5,214.75)"/>
<path d="M0 0 C7.1760667 0.36488475 7.1760667 0.36488475 11 3.3125 C13 6 13 6 13 10 C12.34 10 11.68 10 11 10 C10.67 9.071875 10.34 8.14375 10 7.1875 C7.24249321 2.79272355 4.89077407 2.44317923 0 1 C0 0.67 0 0.34 0 0 Z " fill="#C67061" transform="translate(272,113)"/>
<path d="M0 0 C-3.19668988 2.6486859 -6.39486597 4.93992341 -10 7 C-10 4 -10 4 -7.8125 1.8125 C-4.80799236 -0.12373826 -3.4826218 -0.39801392 0 0 Z " fill="#A4B097" transform="translate(281,223)"/>
<path d="M0 0 C-4.65492322 3.56877447 -9.34849564 3.68175995 -15 4 C-12.60939149 2.40626099 -10.69171821 1.34702924 -8.0625 0.3125 C-7.39347656 0.04050781 -6.72445313 -0.23148438 -6.03515625 -0.51171875 C-3.67169662 -1.0787676 -2.2807201 -0.76024003 0 0 Z " fill="#6A6C2F" transform="translate(292,166)"/>
<path d="M0 0 C0.66 0 1.32 0 2 0 C1.38722388 2.96175123 0.74627478 4.38058783 -1 7 C-1 7.99 -1 8.98 -1 10 C-1.99 10.33 -2.98 10.66 -4 11 C-3.25531915 3.25531915 -3.25531915 3.25531915 0 0 Z " fill="#F5CCB3" transform="translate(188,134)"/>
<path d="M0 0 C0.66 0.33 1.32 0.66 2 1 C0.375 6.75 0.375 6.75 -3 9 C-3.75 7.3125 -3.75 7.3125 -4 5 C-2.0625 2.25 -2.0625 2.25 0 0 Z " fill="#EBD5B5" transform="translate(199,98)"/>
<path d="M0 0 C0.99 0.33 1.98 0.66 3 1 C1.515 3.475 1.515 3.475 0 6 C0.66 6.33 1.32 6.66 2 7 C1.34 8.65 0.68 10.3 0 12 C-0.33 12 -0.66 12 -1 12 C-1.2226746 10.56465159 -1.42761906 9.12654475 -1.625 7.6875 C-1.74101562 6.88699219 -1.85703125 6.08648437 -1.9765625 5.26171875 C-2 3 -2 3 0 0 Z " fill="#3E582B" transform="translate(159,223)"/>
<path d="M0 0 C-0.639375 0.4125 -1.27875 0.825 -1.9375 1.25 C-4.20990931 3.17810487 -4.60196439 4.11424181 -5 7 C-6.5625 5.1875 -6.5625 5.1875 -8 3 C-7.67 2.01 -7.34 1.02 -7 0 C-3.86650268 -1.04449911 -3.01031744 -0.93423645 0 0 Z " fill="#89A356" transform="translate(131,161)"/>
<path d="M0 0 C0.99 0 1.98 0 3 0 C3 1.65 3 3.3 3 5 C2.34 5 1.68 5 1 5 C0.67 5.99 0.34 6.98 0 8 C-0.66 8 -1.32 8 -2 8 C-1.34 5.36 -0.68 2.72 0 0 Z " fill="#D0A258" transform="translate(174,149)"/>
<path d="M0 0 C2 1 2 1 2.8515625 3.50390625 C3.10679687 4.51324219 3.36203125 5.52257812 3.625 6.5625 C3.88539063 7.57441406 4.14578125 8.58632812 4.4140625 9.62890625 C4.60742188 10.41136719 4.80078125 11.19382813 5 12 C4.34 12 3.68 12 3 12 C0.58314288 7.77050005 -0.34833144 4.87664009 0 0 Z " fill="#BCC7AB" transform="translate(248,232)"/>
<path d="M0 0 C3.3 0.33 6.6 0.66 10 1 C5.78370866 3.10814567 3.60209225 3.17700355 -1 3 C-0.67 2.01 -0.34 1.02 0 0 Z " fill="#C59F51" transform="translate(250,172)"/>
<path d="M0 0 C0.66 0.33 1.32 0.66 2 1 C0.59546357 1.89434157 -0.82421869 2.76493192 -2.25 3.625 C-3.03890625 4.11226562 -3.8278125 4.59953125 -4.640625 5.1015625 C-7 6 -7 6 -9.296875 5.1484375 C-9.85890625 4.76945313 -10.4209375 4.39046875 -11 4 C-9.72942818 3.52014033 -8.45853152 3.0411407 -7.1875 2.5625 C-6.47980469 2.29566406 -5.77210938 2.02882812 -5.04296875 1.75390625 C-3.37327604 1.13774814 -1.68842296 0.56280765 0 0 Z " fill="#6D8C3B" transform="translate(296,168)"/>
<path d="M0 0 C1.485 0.99 1.485 0.99 3 2 C3 2.99 3 3.98 3 5 C2.34 5 1.68 5 1 5 C1.33 7.64 1.66 10.28 2 13 C1.34 12.67 0.68 12.34 0 12 C0 8.04 0 4.08 0 0 Z " fill="#93A963" transform="translate(200,66)"/>
<path d="M0 0 C-0.625 2.375 -0.625 2.375 -2 5 C-5.125 6.3125 -5.125 6.3125 -8 7 C-6.13932792 2.84926997 -4.83061881 0 0 0 Z " fill="#425C31" transform="translate(281,224)"/>
<path d="M0 0 C0.66 0 1.32 0 2 0 C1.38722388 2.96175123 0.74627478 4.38058783 -1 7 C-1.99 6.67 -2.98 6.34 -4 6 C-2.84826645 3.53199953 -1.95216435 1.95216435 0 0 Z " fill="#D37E36" transform="translate(197,114)"/>
<path d="M0 0 C0.99 0.495 0.99 0.495 2 1 C2 1.66 2 2.32 2 3 C4.97 3 7.94 3 11 3 C11 3.33 11 3.66 11 4 C9.88625 4.12375 8.7725 4.2475 7.625 4.375 C3.96896323 4.6465813 3.96896323 4.6465813 2 7 C0 5 0 5 -0.125 2.375 C-0.08375 1.59125 -0.0425 0.8075 0 0 Z " fill="#566945" transform="translate(257,98)"/>
<path d="M0 0 C1.65 0.33 3.3 0.66 5 1 C5 1.99 5 2.98 5 4 C3.02 4.33 1.04 4.66 -1 5 C-0.67 3.35 -0.34 1.7 0 0 Z " fill="#466222" transform="translate(322,151)"/>
<path d="M0 0 C3.4375 0.8125 3.4375 0.8125 7 2 C7.33 2.99 7.66 3.98 8 5 C6.35 5.33 4.7 5.66 3 6 C3.33 5.01 3.66 4.02 4 3 C2.68 2.34 1.36 1.68 0 1 C0 0.67 0 0.34 0 0 Z " fill="#8E963E" transform="translate(317,146)"/>
<path d="M0 0 C2.31 0.33 4.62 0.66 7 1 C7 1.66 7 2.32 7 3 C2.25 4.125 2.25 4.125 0 3 C0 2.01 0 1.02 0 0 Z " fill="#808D71" transform="translate(210,251)"/>
<path d="M0 0 C-4.17737474 1.59138085 -7.53160785 2.21278058 -12 2 C-7.68866433 -1.5414543 -5.01745182 -3.04631004 0 0 Z " fill="#C29E50" transform="translate(272,171)"/>
<path d="M0 0 C4.43090471 1.20842856 6.98112756 2.51668565 10 6 C5.96825194 5.72510809 4.43105369 5.46508424 1.625 2.4375 C0.820625 1.2309375 0.820625 1.2309375 0 0 Z " fill="#DC8956" transform="translate(274,118)"/>
<path d="M0 0 C2.97 0.99 5.94 1.98 9 3 C9 3.99 9 4.98 9 6 C5.06326356 4.68775452 2.77280706 3.08089673 0 0 Z " fill="#61652C" transform="translate(256,105)"/>
<path d="M0 0 C0.33 0.99 0.66 1.98 1 3 C0.00390625 4.82421875 0.00390625 4.82421875 -1.4375 6.6875 C-1.91058594 7.31011719 -2.38367188 7.93273437 -2.87109375 8.57421875 C-3.24363281 9.04472656 -3.61617187 9.51523438 -4 10 C-4.66 9.34 -5.32 8.68 -6 8 C-5.67 7.34 -5.34 6.68 -5 6 C-4.34 6 -3.68 6 -3 6 C-2.690625 5.195625 -2.38125 4.39125 -2.0625 3.5625 C-1 1 -1 1 0 0 Z " fill="#CB8436" transform="translate(205,103)"/>
<path d="M0 0 C2 1.125 2 1.125 4 3 C4.25 6.1875 4.25 6.1875 4 9 C2.02 9.99 2.02 9.99 0 11 C0.37125 9.9275 0.7425 8.855 1.125 7.75 C2.31491732 4.18370653 2.31491732 4.18370653 1.125 1.5625 C0.568125 0.7890625 0.568125 0.7890625 0 0 Z " fill="#EDE7D2" transform="translate(200,78)"/>
<path d="M0 0 C1.2065625 0.0309375 1.2065625 0.0309375 2.4375 0.0625 C-2.3125 4.9375 -2.3125 4.9375 -4.5625 6.0625 C-3.48963568 0.08511307 -3.48963568 0.08511307 0 0 Z " fill="#88A254" transform="translate(334.5625,153.9375)"/>
<path d="M0 0 C2.29013653 3.4352048 2.17842973 4.985331 2 9 C1.01 8.34 0.02 7.68 -1 7 C-1.25 3.9375 -1.25 3.9375 -1 1 C-0.67 0.67 -0.34 0.34 0 0 Z " fill="#879B49" transform="translate(253,96)"/>
<path d="M0 0 C0 0.99 0 1.98 0 3 C-1.8125 4.75 -1.8125 4.75 -4 6 C-4.99 5.67 -5.98 5.34 -7 5 C-6.01 4.67 -5.02 4.34 -4 4 C-4.33 3.01 -4.66 2.02 -5 1 C-3.35 0.67 -1.7 0.34 0 0 Z " fill="#B0B9A3" transform="translate(183,249)"/>
<path d="M0 0 C-3.79692186 2.82561627 -6.18569279 4.56638908 -11 4 C-3.77464789 -1.88732394 -3.77464789 -1.88732394 0 0 Z " fill="#746F32" transform="translate(303,161)"/>
<path d="M0 0 C1.485 0.99 1.485 0.99 3 2 C5.50896686 2.45601261 5.50896686 2.45601261 8.1875 2.625 C9.08855469 2.69976562 9.98960937 2.77453125 10.91796875 2.8515625 C11.60503906 2.90054688 12.29210937 2.94953125 13 3 C13 3.33 13 3.66 13 4 C8.71 4 4.42 4 0 4 C0 2.68 0 1.36 0 0 Z " fill="#9BB06C" transform="translate(204,72)"/>
<path d="M0 0 C0.33 1.32 0.66 2.64 1 4 C1.66 4 2.32 4 3 4 C3 6.97 3 9.94 3 13 C2.67 13 2.34 13 2 13 C0.54815522 8.46298506 -0.23509196 4.81938524 0 0 Z " fill="#657755" transform="translate(289,238)"/>
<path d="M0 0 C1.32 0 2.64 0 4 0 C4.66 0.66 5.32 1.32 6 2 C6.66 2 7.32 2 8 2 C7.67 2.99 7.34 3.98 7 5 C4.0625 4.1875 4.0625 4.1875 1 3 C0.67 2.01 0.34 1.02 0 0 Z " fill="#556A46" transform="translate(194,227)"/>
<path d="M0 0 C0.33 0.99 0.66 1.98 1 3 C-1.64 3 -4.28 3 -7 3 C-7.33 2.34 -7.66 1.68 -8 1 C-5.07175348 0.02391783 -3.04386724 -0.08226668 0 0 Z " fill="#3C582B" transform="translate(178,217)"/>
<path d="M0 0 C-0.33 1.98 -0.66 3.96 -1 6 C-1.66 6 -2.32 6 -3 6 C-3 4.68 -3 3.36 -3 2 C-4.32 1.67 -5.64 1.34 -7 1 C-4.50935112 0.31292445 -2.62113708 0 0 0 Z " fill="#9FAE6B" transform="translate(159,154)"/>
<path d="M0 0 C0 1.65 0 3.3 0 5 C-0.66 5 -1.32 5 -2 5 C-2 4.01 -2 3.02 -2 2 C-3.98 2.33 -5.96 2.66 -8 3 C-4.93882432 0.37613513 -4.26826873 0 0 0 Z " fill="#5E682D" transform="translate(322,152)"/>
<path d="M0 0 C1.32 0 2.64 0 4 0 C4 1.32 4 2.64 4 4 C2.35 3.67 0.7 3.34 -1 3 C-0.67 2.01 -0.34 1.02 0 0 Z " fill="#61672A" transform="translate(310,139)"/>
<path d="M0 0 C0.33 0 0.66 0 1 0 C1 1.98 1 3.96 1 6 C2.32 6.66 3.64 7.32 5 8 C5 8.33 5 8.66 5 9 C3.35 9 1.7 9 0 9 C0 6.03 0 3.06 0 0 Z " fill="#B3996E" transform="translate(270,104)"/>
<path d="M0 0 C0.66 0 1.32 0 2 0 C0.8141763 3.37503669 -0.27573689 5.64722731 -3 8 C-3.66 7.67 -4.32 7.34 -5 7 C-4.21654285 5.82780457 -3.42297164 4.66236332 -2.625 3.5 C-2.18414062 2.8503125 -1.74328125 2.200625 -1.2890625 1.53125 C-0.65097656 0.77328125 -0.65097656 0.77328125 0 0 Z " fill="#C5CFB6" transform="translate(316,244)"/>
<path d="M0 0 C0.66 0.66 1.32 1.32 2 2 C1.34 3.65 0.68 5.3 0 7 C-0.66 6.34 -1.32 5.68 -2 5 C-1.67 4.34 -1.34 3.68 -1 3 C-1.66 3 -2.32 3 -3 3 C-3 2.34 -3 1.68 -3 1 C-2.01 0.67 -1.02 0.34 0 0 Z " fill="#3C552B" transform="translate(293,239)"/>
<path d="M0 0 C-4.5 4 -4.5 4 -9 4 C-9 3.34 -9 2.68 -9 2 C-5.86501708 0.14223235 -3.62528568 -0.20140476 0 0 Z " fill="#749443" transform="translate(266,178)"/>
<path d="M0 0 C1.65 0 3.3 0 5 0 C4.34 1.65 3.68 3.3 3 5 C2.34 5 1.68 5 1 5 C0.67 3.35 0.34 1.7 0 0 Z " fill="#9BB068" transform="translate(319,163)"/>
<path d="M0 0 C2.64 0 5.28 0 8 0 C7.360625 0.309375 6.72125 0.61875 6.0625 0.9375 C4.06389179 1.8345163 4.06389179 1.8345163 3 3 C1.33382885 3.04063832 -0.33388095 3.042721 -2 3 C-1.34 2.67 -0.68 2.34 0 2 C0 1.34 0 0.68 0 0 Z " fill="#BFCD99" transform="translate(148,154)"/>
</svg>
